<?xml version="1.0" standalone="no"?>
<!DOCTYPE svg PUBLIC "-//W3C//DTD SVG 1.1//EN" "http://www.w3.org/Graphics/SVG/1.1/DTD/svg11.dtd" >
<svg xmlns="http://www.w3.org/2000/svg">
<metadata>
<json>
<![CDATA[
{
	"fontFamily": "Syna-Font",
	"description": "Creativepark - Basic pictos font\nFont generated by IcoMoon.",
	"copyright": "©2015 creativepark",
	"majorVersion": 1,
	"minorVersion": 6,
	"version": "Version 1.6",
	"fontId": "Syna-Font",
	"psName": "Syna-Font",
	"subFamily": "Regular",
	"fullName": "Syna-Font"
}
]]>
</json>
</metadata>
<defs>
<font id="Syna-Font" horiz-adv-x="1024">
<font-face units-per-em="1024" ascent="960" descent="-64" />
<missing-glyph horiz-adv-x="1024" />
<glyph unicode="&#x20;" horiz-adv-x="512" d="" />
<glyph unicode="&#x21;" glyph-name="skip-forward" data-tags="skip-forward" d="M256 789.334q17.668 0 30.332-12.666l298.668-298.666q12.332-12.334 12.332-30 0-18-12.332-30.332l-298.666-298.668q-12.334-12.332-30.334-12.332-17.668 0-30.168 12.332t-12.5 30q0 17.332 12.332 30.332l268.666 268.668-268.666 268.334q-12.332 13-12.332 30.332 0 17.668 12.5 30.168t30.168 12.5zM725.332 789.334q17.668 0 30.168-12.5t12.5-30.166v-597.332q0-17.668-12.5-30.168t-30.168-12.5-30.168 12.5-12.5 30.168v597.332q0 17.668 12.5 30.168t30.168 12.5z" />
<glyph unicode="&#x22;" glyph-name="rewind" data-tags="rewind" d="M768 789.334q17.668 0 30.168-12.5t12.5-30.166-12.668-30.334l-268.334-268.332 268.334-268.334q12.668-12.668 12.668-30.332t-12.5-30.168-30.168-12.5q-18 0-30.332 12.332l-298.666 298.668q-12.334 12.332-12.334 30.332t12.334 30.334l298.666 298.666q12.332 12.332 30.332 12.332zM512 789.334q17.668 0 30.168-12.5t12.5-30.166-12.668-30.334l-268.334-268.332 268.334-268.334q12.668-12.668 12.668-30.332t-12.5-30.168-30.168-12.5q-18 0-30.332 12.332l-298.666 298.668q-12.332 12.332-12.332 30.332t12.332 30.334l298.666 298.666q12.334 12.332 30.332 12.332z" />
<glyph unicode="&#x23;" glyph-name="command" data-tags="command" d="M768 874.668q70.668 0 120.668-50t50-120.666-50-120.668-120.668-50h-85.332v-170.668h85.332q70.668 0 120.668-50t50-120.668-50-120.668-120.668-50-120.668 50-50 120.668v85.332h-170.668v-85.332q0-70.668-50-120.668t-120.668-50-120.668 50-50 120.668 50 120.668 120.668 50h85.332v170.668h-85.332q-70.668 0-120.668 50t-50 120.668 50 120.666 120.668 50 120.668-50 50-120.666v-85.334h170.668v85.334q0 70.666 50 120.666t120.668 50zM341.334 192v85.332h-85.334q-35.332 0-60.332-25t-25-60.332 25-60.332 60.332-25 60.332 25 25 60.332zM256 789.334q-35.332 0-60.332-25t-25-60.332 25-60.334 60.332-25h85.332v85.334q0 35.332-25 60.332t-60.332 25zM597.332 362.668v170.668h-170.668v-170.668h170.668zM768 277.334h-85.332v-85.332q0-35.332 25-60.332t60.332-25 60.332 25 25 60.332-25 60.332-60.332 25zM768 789.334q-35.332 0-60.332-25t-25-60.332v-85.334h85.332q35.332 0 60.332 25t25 60.334-25 60.332-60.332 25z" />
<glyph unicode="&#x24;" glyph-name="briefcase" data-tags="briefcase" d="M426.666 874.668h170.666q53 0 90.5-37.5t37.5-90.5v-42.666h128q53 0 90.5-37.5t37.5-90.5v-426.668q0-53-37.5-90.5t-90.5-37.5h-682.668q-53 0-90.5 37.5t-37.5 90.5v426.668q0 53 37.5 90.5t90.5 37.5h128v42.666q0 53 37.5 90.5t90.5 37.5zM213.332 106.668v512h-42.668q-17.668 0-30.168-12.5t-12.5-30.166v-426.668q0-17.668 12.5-30.168t30.168-12.5h42.668zM725.332 106.668v512h-426.666v-512h426.666zM853.332 618.668h-42.668v-512h42.668q17.668 0 30.168 12.5t12.5 30.168v426.668q0 17.668-12.5 30.168t-30.168 12.5zM597.332 789.334h-170.668q-17.668 0-30.168-12.5t-12.5-30.166v-42.666h256v42.666q0 17.668-12.5 30.168t-30.168 12.5z" />
<glyph unicode="&#x25;" glyph-name="map" data-tags="map" d="M682.668 746.668l341.332 213.332v-810.668l-341.334-213.332-341.334 213.332-341.334-213.332v810.666l341.334 213.334zM298.666 223.334v609l-213.332-133.332v-609zM640 672.668l-256 160.332v-609.668l256-160v609.334zM938.668 196.668v609.334l-213.332-133.334v-609.332z" />
<glyph unicode="&#x26;" glyph-name="record" data-tags="record" d="M512 832q78 0 149.168-30.5t122.5-81.834 81.832-122.5 30.5-149.168-30.5-149.168-81.832-122.5-122.5-81.832-149.168-30.5-149.168 30.5-122.5 81.832-81.832 122.5-30.5 149.168 30.5 149.168 81.832 122.5 122.5 81.834 149.168 30.5zM512 746.668q-60.668 0-116-23.666t-95.332-63.668-63.668-95.332-23.668-116 23.668-116 63.668-95.332 95.332-63.668 116-23.668 116 23.668 95.332 63.668 63.668 95.332 23.668 116-23.668 116-63.668 95.332-95.332 63.668-116 23.668z" />
<glyph unicode="&#x27;" glyph-name="play" data-tags="play" d="M170.668 64v768l640-384zM644.668 448l-388.666 233.332v-466.668z" />
<glyph unicode="&#x28;" glyph-name="pause" data-tags="pause" d="M682.668 832q53 0 90.5-37.5t37.5-90.5v-512q0-53-37.5-90.5t-90.5-37.5-90.5 37.5-37.5 90.5v512q0 53 37.5 90.5t90.5 37.5zM341.334 832q53 0 90.5-37.5t37.5-90.5v-512q0-53-37.5-90.5t-90.5-37.5-90.5 37.5-37.5 90.5v512q0 53 37.5 90.5t90.5 37.5zM341.334 746.668q-17.666 0-30.166-12.5t-12.5-30.166v-512q0-17.668 12.5-30.168t30.168-12.5 30.168 12.5 12.5 30.168v512q0 17.666-12.5 30.166t-30.168 12.5zM682.668 746.668q-17.668 0-30.168-12.5t-12.5-30.166v-512q0-17.668 12.5-30.168t30.168-12.5 30.168 12.5 12.5 30.168v512q0 17.666-12.5 30.166t-30.168 12.5z" />
<glyph unicode="&#x29;" glyph-name="tel" data-tags="tel" d="M285.174 784.536c-31.356-23.472-120.118-150.784 45.978-439.288 174.998-304 341.568-291.336 374.958-270.774l-118.028 199.304c-27.868-16.386-51.376 10.61-94.74 69.324-0.746 0.472-84.638 141.554-84.948 143.39-17.332 37.894-31.32 76.68-2.18 93.868l-121.044 204.174zM778.068 116.478c12.934 7.648 15.932 23.582 8.992 35.406l0.036 0.108c0 0-92.14 155.288-92.196 155.38-7.266 12.298-23.018 16.15-35.244 8.974l-56.444-33.354 118.336-199.87c0 0 56.444 33.226 56.408 33.3l0.108 0.056zM478.154 622.818c12.934 7.666 16.004 23.56 9.084 35.26l0.036 0.182c0 0-94.794 159.774-94.83 159.81-7.302 12.372-23.072 16.168-35.242 9.028l-56.444-33.39 120.936-204.284c0 0 56.426 33.19 56.444 33.264l0.020 0.128z" />
<glyph unicode="&#x2a;" glyph-name="code" data-tags="code" d="M624 106.668c-11.778 0-21.832 4.168-30.168 12.5s-12.5 18.39-12.5 30.168c0 11.778 4.222 21.89 12.668 30.332l268.334 268.334-268.334 268.334c-8.444 8.444-12.668 18.556-12.668 30.332s4.168 21.834 12.5 30.168 18.39 12.5 30.168 12.5c12 0 22.11-4.112 30.332-12.334l298.668-298.666c8.222-8.224 12.332-18.334 12.332-30.334s-4.112-22.11-12.332-30.332l-298.666-298.666c-8.222-8.222-18.332-12.332-30.332-12.332zM400 789.334c11.778 0 21.832-4.166 30.168-12.5s12.5-18.388 12.5-30.166-4.222-21.89-12.666-30.334l-268.334-268.332 268.334-268.334c8.444-8.444 12.666-18.556 12.666-30.332s-4.166-21.832-12.5-30.168-18.388-12.5-30.168-12.5c-12 0-22.11 4.11-30.332 12.332l-298.666 298.668c-8.222 8.222-12.332 18.332-12.332 30.332s4.11 22.112 12.332 30.334l298.666 298.666c8.224 8.222 18.332 12.332 30.332 12.332z" />
<glyph unicode="&#x2b;" glyph-name="plus" data-tags="plus" d="M512 874.668q17.668 0 30.168-12.5t12.5-30.166v-341.334h341.332q17.668 0 30.168-12.5t12.5-30.168-12.5-30.168-30.168-12.5h-341.334v-341.332q0-17.668-12.5-30.168t-30.168-12.5-30.168 12.5-12.5 30.168v341.334h-341.334q-17.668 0-30.168 12.5t-12.5 30.168 12.5 30.168 30.168 12.5h341.334v341.334q0 17.668 12.5 30.168t30.168 12.5z" />
<glyph unicode="&#x2c;" glyph-name="minimize" data-tags="minimize" d="M85.332 917.334q18 0 30.332-12.334l268.334-268.332v195.666q0 17.668 12.5 30.168t30.168 12.5 30.168-12.5 12.5-30.168v-298.666q0-17.666-12.666-30.332t-30.334-12.666h-298.666q-17.668 0-30.168 12.5t-12.5 30.168 12.5 30.166 30.168 12.5h195.666l-268.334 268.334q-12.332 12.332-12.332 30.332 0 18.332 12.168 30.5t30.5 12.168zM597.668 405.334h298.668q17.668 0 30.168-12.5t12.5-30.168-12.5-30.168-30.168-12.5h-195.668l268-268.332q12.668-12.668 12.668-30.332t-12.5-30.168-30.168-12.5q-18 0-30.332 12.332l-268.334 268.332v-195.668q0-17.668-12.5-30.168t-30.168-12.5-30.168 12.5-12.5 30.168v298.668q0 17.668 12.668 30.332t30.332 12.668z" />
<glyph unicode="&#x2d;" glyph-name="minus" data-tags="minus" d="M128 490.668h768q17.668 0 30.168-12.5t12.5-30.168-12.5-30.168-30.168-12.5h-768q-17.668 0-30.168 12.5t-12.5 30.168 12.5 30.168 30.168 12.5z" />
<glyph unicode="&#x2e;" glyph-name="battery" data-tags="battery" d="M128 746.668h640q53 0 90.5-37.5t37.5-90.5q53 0 90.5-37.5t37.5-90.5v-85.334q0-53-37.5-90.5t-90.5-37.5q0-53-37.5-90.5t-90.5-37.5h-640q-53 0-90.5 37.5t-37.5 90.5v341.334q0 53 37.5 90.5t90.5 37.5zM768 661.334h-640q-17.668 0-30.168-12.5t-12.5-30.168v-341.332q0-17.668 12.5-30.168t30.168-12.5h640q17.668 0 30.168 12.5t12.5 30.168v341.334q0 17.668-12.5 30.168t-30.168 12.5zM896 533.334v-170.668q17.668 0 30.168 12.5t12.5 30.168v85.334q0 17.668-12.5 30.168t-30.168 12.5z" />
<glyph unicode="&#x2f;" glyph-name="ribbon" data-tags="ribbon" d="M298.666 917.334h426.666q53 0 90.5-37.5t37.5-90.5v-810.668l-341.332 256-341.334-256v810.668q0 53 37.5 90.5t90.5 37.5zM725.332 832h-426.666q-17.666 0-30.166-12.5t-12.5-30.168v-640l256 192 256-192v640q0 17.668-12.5 30.168t-30.168 12.5z" />
<glyph unicode="&#x30;" glyph-name="grid" data-tags="grid" d="M682.668 917.334h170.668q53 0 90.5-37.5t37.5-90.5v-170.666q0-53-37.5-90.5t-90.5-37.5h-170.668q-53 0-90.5 37.5t-37.5 90.5v170.666q0 53 37.5 90.5t90.5 37.5zM170.668 405.334h170.668q53 0 90.5-37.5t37.5-90.5v-170.668q0-53-37.5-90.5t-90.5-37.5h-170.668q-53 0-90.5 37.5t-37.5 90.5v170.668q0 53 37.5 90.5t90.5 37.5zM341.334 320h-170.668q-17.668 0-30.168-12.5t-12.5-30.168v-170.668q0-17.668 12.5-30.168t30.168-12.5h170.668q17.666 0 30.166 12.5t12.5 30.168v170.668q0 17.668-12.5 30.168t-30.168 12.5zM170.668 917.334h170.668q53 0 90.5-37.5t37.5-90.5v-170.666q0-53-37.5-90.5t-90.5-37.5h-170.668q-53 0-90.5 37.5t-37.5 90.5v170.666q0 53 37.5 90.5t90.5 37.5zM341.334 832h-170.668q-17.668 0-30.168-12.5t-12.5-30.168v-170.666q0-17.666 12.5-30.166t30.168-12.5h170.668q17.666 0 30.166 12.5t12.5 30.166v170.668q0 17.668-12.5 30.168t-30.168 12.5zM682.668 405.334h170.668q53 0 90.5-37.5t37.5-90.5v-170.668q0-53-37.5-90.5t-90.5-37.5h-170.668q-53 0-90.5 37.5t-37.5 90.5v170.668q0 53 37.5 90.5t90.5 37.5zM853.332 320h-170.668q-17.668 0-30.168-12.5t-12.5-30.168v-170.668q0-17.668 12.5-30.168t30.168-12.5h170.668q17.668 0 30.168 12.5t12.5 30.168v170.668q0 17.668-12.5 30.168t-30.168 12.5zM853.332 832h-170.668q-17.668 0-30.168-12.5t-12.5-30.168v-170.666q0-17.666 12.5-30.166t30.168-12.5h170.668q17.668 0 30.168 12.5t12.5 30.166v170.668q0 17.668-12.5 30.168t-30.168 12.5z" />
<glyph unicode="&#x31;" glyph-name="bold" data-tags="bold" d="M810.62 603.526c0-57.13-27.508-112.146-96.278-142.83 86.754-26.45 118.496-118.496 118.496-165.046 0-165.048-123.784-217.948-277.192-217.948-117.438 0-233.818 0-351.254 0v740.596c116.38 0 233.818 0 351.254 0 146.002 0 254.976-65.596 254.976-214.772zM341.928 521.002h213.716c87.814 0 116.38 37.030 116.38 79.35 0 33.856-27.508 90.988-116.38 90.988h-213.716v-170.336zM341.928 207.834h213.716c57.132 0 138.596 19.044 138.596 88.872 0 66.654-81.466 101.568-138.596 101.568h-213.716v-190.438z" />
<glyph unicode="&#x32;" glyph-name="italic" data-tags="italic" d="M323.772 114.236l73.99 15 114.618 633.536-66.49 11.498 6 50.494h252.842l-5.5-50.494-76.49-11.498-114.618-633.536 78.488-14.498-4-43.494h-263.34l4.498 42.99z" />
<glyph unicode="&#x33;" glyph-name="underline" data-tags="underline" d="M262.932-8.514c-9.734 0-18.046 3.446-24.936 10.332s-10.332 15.198-10.332 24.934 3.444 18.048 10.332 24.934 15.2 10.332 24.936 10.332h498.136c9.734 0 18.048-3.446 24.934-10.332s10.332-15.198 10.332-24.934-3.446-18.048-10.332-24.934-15.2-10.332-24.934-10.332h-498.136zM778.548 774.452v-371.196c0-179.724-110.266-271.758-263.076-271.758-145.866 0-270.024 88.558-270.024 271.758v371.196h113.74v-371.196c0-109.396 62.512-167.568 157.15-167.568s148.47 63.38 148.47 167.568v371.196h113.74z" />
<glyph unicode="&#x34;" glyph-name="align-justify" data-tags="align-justify" d="M128 746.668h768q17.668 0 30.168-12.5t12.5-30.166-12.5-30.168-30.168-12.5h-768q-17.668 0-30.168 12.5t-12.5 30.168 12.5 30.166 30.168 12.5zM128 234.668h768q17.668 0 30.168-12.5t12.5-30.168-12.5-30.168-30.168-12.5h-768q-17.668 0-30.168 12.5t-12.5 30.168 12.5 30.168 30.168 12.5zM128 405.334h768q17.668 0 30.168-12.5t12.5-30.168-12.5-30.168-30.168-12.5h-768q-17.668 0-30.168 12.5t-12.5 30.168 12.5 30.168 30.168 12.5zM128 576h768q17.668 0 30.168-12.5t12.5-30.168-12.5-30.168-30.168-12.5h-768q-17.668 0-30.168 12.5t-12.5 30.168 12.5 30.168 30.168 12.5z" />
<glyph unicode="&#x35;" glyph-name="align-left" data-tags="align-left" d="M128 746.668h768q17.668 0 30.168-12.5t12.5-30.166-12.5-30.168-30.168-12.5h-768q-17.668 0-30.168 12.5t-12.5 30.168 12.5 30.166 30.168 12.5zM128 234.668h597.332q17.668 0 30.168-12.5t12.5-30.168-12.5-30.168-30.168-12.5h-597.332q-17.668 0-30.168 12.5t-12.5 30.168 12.5 30.168 30.168 12.5zM128 405.334h768q17.668 0 30.168-12.5t12.5-30.168-12.5-30.168-30.168-12.5h-768q-17.668 0-30.168 12.5t-12.5 30.168 12.5 30.168 30.168 12.5zM128 576h597.332q17.668 0 30.168-12.5t12.5-30.168-12.5-30.168-30.168-12.5h-597.332q-17.668 0-30.168 12.5t-12.5 30.168 12.5 30.168 30.168 12.5z" />
<glyph unicode="&#x36;" glyph-name="align-center" data-tags="align-center" d="M128 746.668h768q17.668 0 30.168-12.5t12.5-30.166-12.5-30.168-30.168-12.5h-768q-17.668 0-30.168 12.5t-12.5 30.168 12.5 30.166 30.168 12.5zM213.332 234.668h597.332q17.668 0 30.168-12.5t12.5-30.168-12.5-30.168-30.168-12.5h-597.332q-17.668 0-30.168 12.5t-12.5 30.168 12.5 30.168 30.168 12.5zM128 405.334h768q17.668 0 30.168-12.5t12.5-30.168-12.5-30.168-30.168-12.5h-768q-17.668 0-30.168 12.5t-12.5 30.168 12.5 30.168 30.168 12.5zM213.332 576h597.332q17.668 0 30.168-12.5t12.5-30.168-12.5-30.168-30.168-12.5h-597.332q-17.668 0-30.168 12.5t-12.5 30.168 12.5 30.168 30.168 12.5z" />
<glyph unicode="&#x37;" glyph-name="align-right" data-tags="align-right" d="M128 746.668h768q17.668 0 30.168-12.5t12.5-30.166-12.5-30.168-30.168-12.5h-768q-17.668 0-30.168 12.5t-12.5 30.168 12.5 30.166 30.168 12.5zM298.666 234.668h597.334q17.668 0 30.168-12.5t12.5-30.168-12.5-30.168-30.168-12.5h-597.332q-17.668 0-30.168 12.5t-12.5 30.168 12.5 30.168 30.168 12.5zM128 405.334h768q17.668 0 30.168-12.5t12.5-30.168-12.5-30.168-30.168-12.5h-768q-17.668 0-30.168 12.5t-12.5 30.168 12.5 30.168 30.168 12.5zM298.666 576h597.334q17.668 0 30.168-12.5t12.5-30.168-12.5-30.168-30.168-12.5h-597.332q-17.668 0-30.168 12.5t-12.5 30.168 12.5 30.168 30.168 12.5z" />
<glyph unicode="&#x38;" glyph-name="content-right" data-tags="content-right" d="M682.668 917.334h170.668q53 0 90.5-37.5t37.5-90.5v-682.668q0-53-37.5-90.5t-90.5-37.5h-170.668q-53 0-90.5 37.5t-37.5 90.5v682.668q0 53 37.5 90.5t90.5 37.5zM170.668 405.334h170.668q53 0 90.5-37.5t37.5-90.5v-170.668q0-53-37.5-90.5t-90.5-37.5h-170.668q-53 0-90.5 37.5t-37.5 90.5v170.668q0 53 37.5 90.5t90.5 37.5zM341.334 320h-170.668q-17.668 0-30.168-12.5t-12.5-30.168v-170.668q0-17.668 12.5-30.168t30.168-12.5h170.668q17.666 0 30.166 12.5t12.5 30.168v170.668q0 17.668-12.5 30.168t-30.168 12.5zM170.668 917.334h170.668q53 0 90.5-37.5t37.5-90.5v-170.666q0-53-37.5-90.5t-90.5-37.5h-170.668q-53 0-90.5 37.5t-37.5 90.5v170.666q0 53 37.5 90.5t90.5 37.5zM341.334 832h-170.668q-17.668 0-30.168-12.5t-12.5-30.168v-170.666q0-17.666 12.5-30.166t30.168-12.5h170.668q17.666 0 30.166 12.5t12.5 30.166v170.668q0 17.668-12.5 30.168t-30.168 12.5zM853.332 832h-170.668q-17.668 0-30.168-12.5t-12.5-30.168v-682.668q0-17.668 12.5-30.168t30.168-12.5h170.668q17.668 0 30.168 12.5t12.5 30.168v682.668q0 17.668-12.5 30.168t-30.168 12.5z" />
<glyph unicode="&#x39;" glyph-name="content-left" data-tags="content-left" d="M170.668 917.334h170.668q53 0 90.5-37.5t37.5-90.5v-682.668q0-53-37.5-90.5t-90.5-37.5h-170.668q-53 0-90.5 37.5t-37.5 90.5v682.668q0 53 37.5 90.5t90.5 37.5zM341.334 832h-170.668q-17.668 0-30.168-12.5t-12.5-30.168v-682.668q0-17.668 12.5-30.168t30.168-12.5h170.668q17.666 0 30.166 12.5t12.5 30.168v682.668q0 17.668-12.5 30.168t-30.168 12.5zM682.668 405.334h170.668q53 0 90.5-37.5t37.5-90.5v-170.668q0-53-37.5-90.5t-90.5-37.5h-170.668q-53 0-90.5 37.5t-37.5 90.5v170.668q0 53 37.5 90.5t90.5 37.5zM853.332 320h-170.668q-17.668 0-30.168-12.5t-12.5-30.168v-170.668q0-17.668 12.5-30.168t30.168-12.5h170.668q17.668 0 30.168 12.5t12.5 30.168v170.668q0 17.668-12.5 30.168t-30.168 12.5zM682.668 917.334h170.668q53 0 90.5-37.5t37.5-90.5v-170.666q0-53-37.5-90.5t-90.5-37.5h-170.668q-53 0-90.5 37.5t-37.5 90.5v170.666q0 53 37.5 90.5t90.5 37.5zM853.332 832h-170.668q-17.668 0-30.168-12.5t-12.5-30.168v-170.666q0-17.666 12.5-30.166t30.168-12.5h170.668q17.668 0 30.168 12.5t12.5 30.166v170.668q0 17.668-12.5 30.168t-30.168 12.5z" />
<glyph unicode="&#x3a;" glyph-name="layout" data-tags="layout" d="M170.668 917.334h682.668q53 0 90.5-37.5t37.5-90.5v-682.668q0-53-37.5-90.5t-90.5-37.5h-682.668q-53 0-90.5 37.5t-37.5 90.5v682.668q0 53 37.5 90.5t90.5 37.5zM341.334 64v512h-213.332v-469.334q0-17.668 12.5-30.168t30.168-12.5h170.668zM896 106.668v469.334h-469.334v-512h426.666q17.668 0 30.168 12.5t12.5 30.168zM853.332 832h-682.668q-17.668 0-30.168-12.5t-12.5-30.168v-128h768v128q0 17.668-12.5 30.168t-30.168 12.5z" />
<glyph unicode="&#x3b;" glyph-name="box" data-tags="box" d="M42.668 746.668l469.332 213.332 469.334-213.332v-597.332l-469.334-213.332-469.334 213.332v597.332zM469.334 506l-341.334 155v-456.668l341.334-155.332v457zM896 204.334v456.668l-341.334-155v-457zM826.668 723.334l-314.668 143-314.666-143 314.666-143z" />
<glyph unicode="&#x3c;" glyph-name="simply-left" data-tags="simply-left" d="M665 179.668c8.222-8.222 12.332-18.332 12.332-30.332 0-12.222-4.054-22.39-12.168-30.5s-18.278-12.168-30.5-12.168c-12 0-22.11 4.11-30.332 12.332l-298.666 298.666c-8.224 8.222-12.334 18.332-12.334 30.332s4.11 22.112 12.334 30.334l298.666 298.666c8.222 8.222 18.332 12.332 30.332 12.332 12.222 0 22.39-4.054 30.5-12.168s12.168-18.278 12.168-30.5c0-12-4.112-22.112-12.332-30.332l-268.334-268.334 268.334-268.334z" />
<glyph unicode="&#x3d;" glyph-name="menu" data-tags="menu" d="M128 746.668h768q17.668 0 30.168-12.5t12.5-30.166-12.5-30.168-30.168-12.5h-768q-17.668 0-30.168 12.5t-12.5 30.168 12.5 30.166 30.168 12.5zM128 234.668h768q17.668 0 30.168-12.5t12.5-30.168-12.5-30.168-30.168-12.5h-768q-17.668 0-30.168 12.5t-12.5 30.168 12.5 30.168 30.168 12.5zM128 490.668h768q17.668 0 30.168-12.5t12.5-30.168-12.5-30.168-30.168-12.5h-768q-17.668 0-30.168 12.5t-12.5 30.168 12.5 30.168 30.168 12.5z" />
<glyph unicode="&#x3e;" glyph-name="simply-right" data-tags="simply-right" d="M359 716.334c-8.222 8.224-12.334 18.334-12.334 30.334 0 12.222 4.056 22.39 12.166 30.5s18.276 12.166 30.5 12.166c12 0 22.11-4.11 30.332-12.332l298.666-298.668c8.222-8.224 12.332-18.334 12.332-30.334s-4.11-22.11-12.332-30.332l-298.666-298.668c-8.224-8.222-18.334-12.332-30.334-12.332-12.224 0-22.39 4.054-30.5 12.168s-12.166 18.278-12.166 30.5c0 12 4.112 22.112 12.334 30.332l268.332 268.334-268.334 268.334z" />
<glyph unicode="&#x3f;" glyph-name="maximize" data-tags="maximize" d="M597.332 405.668q17.668 0 30.332-12.668l268.334-268.334v195.668q0 17.668 12.5 30.168t30.168 12.5 30.168-12.5 12.5-30.168v-298.668q0-17.668-12.668-30.332t-30.332-12.668h-298.666q-17.668 0-30.168 12.5t-12.5 30.168 12.5 30.168 30.168 12.5h195.668l-268.332 268.334q-12.332 13-12.332 30.332 0 17.668 12.5 30.332t30.168 12.668zM85.332 917.334h298.668q17.668 0 30.168-12.5t12.5-30.168-12.5-30.168-30.168-12.5h-195.668l268.334-268q12.666-12.668 12.666-30.334t-12.666-30.166-30.332-12.5q-17 0-30.332 12.334l-268 268.332v-195.666q0-17.668-12.5-30.168t-30.168-12.5-30.168 12.5-12.5 30.168v298.666q0 17.668 12.5 30.168t30.168 12.5z" />
<glyph unicode="&#x40;" glyph-name="youtube" data-tags="youtube" d="M793.12 450.464h-562.272c-89.376 0-161.824-72.512-161.824-161.888v-130.080c0-89.344 72.448-161.856 161.824-161.856h562.272c89.344 0 161.824 72.512 161.824 161.856v130.080c0 89.344-72.48 161.888-161.824 161.888zM348.992 349.216h-52.256v-259.744h-50.496v259.744h-52.224v44.192h155.008v-44.192zM496.672 89.472h-44.8v24.576c-8.32-9.088-16.896-16.032-25.856-20.704-8.96-4.864-17.6-7.168-26.016-7.168-10.4 0-18.144 3.296-23.424 10.016-5.216 6.688-7.872 16.64-7.872 30.048v187.424h44.8v-172c0-5.312 0.992-9.12 2.784-11.488 1.92-2.432 4.992-3.552 9.216-3.552 3.264 0 7.456 1.568 12.48 4.704 5.088 3.168 9.696 7.168 13.92 12.064v170.304h44.8v-224.256zM659.296 135.776c0-15.84-3.52-28-10.56-36.512-6.976-8.48-17.216-12.672-30.464-12.672-8.8 0-16.64 1.6-23.456 4.864-6.848 3.264-13.28 8.256-19.168 15.2v-17.184h-45.344v303.904h45.344v-97.888c6.080 6.784 12.48 12.032 19.168 15.552 6.848 3.584 13.728 5.312 20.704 5.312 14.176 0 24.992-4.736 32.448-14.272 7.52-9.568 11.264-23.552 11.264-41.888v-124.416zM814.688 196.192h-85.728v-42.24c0-11.776 1.44-19.968 4.384-24.544 3.008-4.576 8.032-6.816 15.2-6.816 7.456 0 12.576 1.92 15.584 5.792 2.88 3.904 4.448 12.384 4.448 25.568v10.208h46.112v-11.52c0-22.976-5.568-40.288-16.896-51.968-11.136-11.584-27.936-17.312-50.272-17.312-20.096 0-35.936 6.112-47.456 18.432-11.456 12.256-17.312 29.248-17.312 50.848v100.704c0 19.392 6.4 35.328 19.104 47.552 12.672 12.224 28.96 18.336 49.024 18.336 20.544 0 36.32-5.664 47.296-16.992s16.512-27.616 16.512-48.864v-57.152zM748.96 280.032c-7.168 0-12.256-2.016-15.36-6.208-3.168-3.936-4.672-10.688-4.672-20.096v-22.656h39.616v22.656c0 9.408-1.6 16.16-4.736 20.096-3.008 4.16-8.064 6.208-14.88 6.208zM594.4 280.8c-3.168 0-6.4-0.704-9.472-2.176-3.136-1.44-6.208-3.808-9.248-6.88v-139.68c3.584-3.616 7.168-6.4 10.624-7.968 3.456-1.536 7.040-2.4 10.848-2.4 5.504 0 9.504 1.6 12.096 4.8 2.56 3.168 3.84 8.256 3.84 15.424v115.808c0 7.616-1.504 13.344-4.704 17.248-3.296 3.872-7.936 5.824-13.984 5.824zM304.48 528.352h56.8v138.912l66.112 195.936h-57.728l-35.136-133.856h-3.584l-36.896 133.856h-57.216l67.648-202.176zM504.352 522.112c22.944 0 40.928 6.016 54.048 18.048 13.024 12.096 19.552 28.576 19.552 49.696v127.584c0 18.816-6.656 34.272-19.936 46.208-13.376 11.904-30.496 17.888-51.36 17.888-22.944 0-41.184-5.664-54.784-16.992-13.536-11.328-20.352-26.528-20.352-45.728v-128.032c0-20.992 6.624-37.632 19.872-50.080 13.248-12.416 30.944-18.624 52.992-18.624zM483.424 720.736c0 5.376 1.92 9.696 5.696 13.088 3.904 3.328 8.896 4.928 15.072 4.928 6.656 0 12.064-1.6 16.192-4.928 4.096-3.392 6.144-7.744 6.144-13.088v-134.592c0-6.592-2.016-11.84-6.080-15.616-4.032-3.808-9.44-5.664-16.256-5.664-6.656 0-11.808 1.792-15.424 5.6-3.552 3.712-5.376 8.896-5.376 15.68v134.56zM654.112 524.736c9.472 0 19.232 2.72 29.248 7.904 10.144 5.28 19.84 12.992 29.056 23.040v-27.36h50.432v247.008h-50.432v-187.488c-4.704-5.376-9.92-9.76-15.52-13.28-5.696-3.456-10.4-5.216-14.112-5.216-4.736 0-8.224 1.312-10.272 4-2.080 2.592-3.264 6.816-3.264 12.608v189.376h-50.368v-206.432c0-14.72 2.976-25.728 8.8-33.024 5.952-7.392 14.656-11.136 26.4-11.136z" />
<glyph unicode="&#x41;" glyph-name="calendar" data-tags="calendar" d="M943.832 794.5c-25 25-55.168 37.5-90.5 37.5h-88v51.666c0 23.564-19.1 42.668-42.668 42.668-23.564 0-42.668-19.102-42.668-42.668v-51.666h-336v51.666c0 23.564-19.1 42.668-42.668 42.668-23.564 0-42.668-19.102-42.668-42.668v-51.666h-88c-35.332 0-65.5-12.5-90.5-37.5s-37.5-55.168-37.5-90.5v-597.334c0-35.332 12.5-65.5 37.5-90.5s55.168-37.5 90.5-37.5h682.668c35.332 0 65.5 12.5 90.5 37.5s37.5 55.168 37.5 90.5v597.334c0 35.332-12.5 65.5-37.5 90.5zM896 106.668c0-11.778-4.168-21.832-12.5-30.168s-18.39-12.5-30.168-12.5h-682.668c-11.778 0-21.832 4.168-30.168 12.5s-12.5 18.39-12.5 30.168v597.334c0 11.776 4.168 21.832 12.5 30.166s18.388 12.5 30.168 12.5h88v-46.332c0-23.564 19.104-42.668 42.668-42.668s42.668 19.104 42.668 42.668v46.332h336v-46.332c0-23.564 19.102-42.668 42.668-42.668s42.668 19.104 42.668 42.668v46.332h88c11.778 0 21.832-4.166 30.168-12.5s12.5-18.388 12.5-30.166v-597.332zM213.332 570.668h85.332v-85.334h-85.332v85.334zM725.332 570.668h85.332v-85.334h-85.332v85.334zM554.668 570.668h85.332v-85.334h-85.332v85.334zM384 570.668h85.332v-85.334h-85.332v85.334zM213.332 229.334h85.332v-85.332h-85.332v85.332zM213.332 400h85.332v-85.332h-85.332v85.332zM725.332 229.334h85.332v-85.332h-85.332v85.332zM725.332 400h85.332v-85.332h-85.332v85.332zM554.668 229.334h85.332v-85.332h-85.332v85.332zM384 229.334h85.332v-85.332h-85.332v85.332zM384 400h85.332v-85.332h-85.332v85.332zM554.668 400h85.332v-85.332h-85.332v85.332z" />
<glyph unicode="&#x42;" glyph-name="rearward" data-tags="rearward" d="M356.666 805q17.334 0 30-12.5t12.666-30.168-12.666-30.332l-198.668-198.668h409.332q78 0 149.168-30.332t122.5-81.834 81.832-122.5 30.5-149.332v-42.668q0-17.668-12.5-30.168t-30.168-12.5q-17.332 0-30 12.668t-12.668 30v42.668q0 60.668-23.668 116t-63.668 95.332-95.332 63.668-116 23.668h-409.334l198.666-199q12.666-12.668 12.666-30 0-17.668-12.5-30.332t-30.166-12.668-30.332 12.668l-271.334 271.668q-12.332 12.334-12.332 30.334 0 17.668 12.332 30l271.334 271.666q12.666 12.666 30.332 12.666z" />
<glyph unicode="&#x43;" glyph-name="clock" data-tags="clock" d="M512 917.334q95.668 0 182.5-37.168t149.668-100 100-149.666 37.168-182.5-37.168-182.5-100-149.668-149.668-100-182.5-37.168-182.5 37.168-149.668 100-100 149.668-37.168 182.5 37.168 182.5 100 149.666 149.668 100 182.5 37.168zM512 832q-78 0-149.168-30.5t-122.5-81.834-81.832-122.5-30.5-149.168 30.5-149.168 81.832-122.5 122.5-81.832 149.168-30.5 149.168 30.5 122.5 81.832 81.832 122.5 30.5 149.168-30.5 149.168-81.832 122.5-122.5 81.834-149.168 30.5zM512 746.668q17.668 0 30.168-12.5t12.5-30.166v-238.334l115.668-115.332q12.332-12.332 12.332-30.332t-12.332-30.332-30.332-12.332-30.332 12.332l-128 128q-12.334 12.332-12.334 30.332v256q0 17.668 12.5 30.168t30.166 12.5z" />
<glyph unicode="&#x44;" glyph-name="download" data-tags="download" d="M640 789.334h170.668q53 0 90.5-37.5t37.5-90.5v-597.332q0-53-37.5-90.5t-90.5-37.5h-597.332q-53 0-90.5 37.5t-37.5 90.5v597.332q0 53 37.5 90.5t90.5 37.5h170.668v-85.332h-170.668q-17.668 0-30.168-12.5t-12.5-30.168v-597.332q0-17.668 12.5-30.168t30.168-12.5h597.332q17.668 0 30.168 12.5t12.5 30.168v597.332q0 17.668-12.5 30.168t-30.168 12.5h-170.668v85.332zM512 960q17.668 0 30.168-12.5t12.5-30.166v-537l97.668 98q12.332 12.334 30.332 12.334 18.332 0 30.5-12.166t12.168-30.5q0-18-12.332-30.332l-170.668-170.668q-12.332-12.332-30.332-12.332t-30.332 12.332l-170.668 170.668q-12.334 13-12.334 30.332 0 17.668 12.5 30.168t30.166 12.5q18 0 30.332-12.334l97.668-98v537q0 17.668 12.5 30.168t30.168 12.5z" />
<glyph unicode="&#x45;" glyph-name="bell" data-tags="bell" d="M512 917.334q55 0 104-17.834t87-49.168 68.332-74.5 50.5-93.332 31.5-106.5q33.668-169 71.5-267.168t99.168-159.5h-391.334q7.332-21 7.332-42.668 0-53-37.5-90.5t-90.5-37.5-90.5 37.5-37.5 90.5q0 21.668 7.334 42.668h-391.334q61.332 61.332 99.168 159.5t71.5 267.168q11.332 56.334 31.5 106.5t50.5 93.332 68.332 74.5 87 49.168 104 17.832zM512 149.334q-17.668 0-30.168-12.5t-12.5-30.168 12.5-30.168 30.168-12.5 30.168 12.5 12.5 30.168-12.5 30.168-30.168 12.5zM512 832q-38.668 0-72.832-12t-58.5-30.668-45.168-44.832-33.832-50.834-23.5-52.666-15.5-46.168-8.332-35.5q-42.668-215-94-324.668h703.332q-51.332 109.668-94 324.668-3.332 17.334-8.332 35.5t-15.5 46.166-23.5 52.668-33.832 50.832-45.168 44.834-58.5 30.666-72.832 12z" />
<glyph unicode="&#x46;" glyph-name="file" data-tags="file" d="M213.332 960h426.668l298.666-298.666v-597.334q0-53-37.5-90.5t-90.5-37.5h-597.332q-53 0-90.5 37.5t-37.5 90.5v768q0 53 37.5 90.5t90.5 37.5zM554.668 576v298.666h-341.334q-18 0-30.332-12.332t-12.332-30.332v-768q0-18 12.332-30.332t30.332-12.332h597.332q18 0 30.332 12.332t12.332 30.332v512h-298.666zM818 661.334l-178 178v-178h178z" />
<glyph unicode="&#x47;" glyph-name="bar-graph" data-tags="bar-graph" d="M853.332 917.334q53 0 90.5-37.5t37.5-90.5v-682.668q0-53-37.5-90.5t-90.5-37.5-90.5 37.5-37.5 90.5v682.668q0 53 37.5 90.5t90.5 37.5zM170.668 405.334q53 0 90.5-37.5t37.5-90.5v-170.668q0-53-37.5-90.5t-90.5-37.5-90.5 37.5-37.5 90.5v170.668q0 53 37.5 90.5t90.5 37.5zM170.668 320q-17.668 0-30.168-12.5t-12.5-30.168v-170.668q0-17.668 12.5-30.168t30.168-12.5 30.168 12.5 12.5 30.168v170.668q0 17.668-12.5 30.168t-30.168 12.5zM512 661.334q53 0 90.5-37.5t37.5-90.5v-426.668q0-53-37.5-90.5t-90.5-37.5-90.5 37.5-37.5 90.5v426.668q0 53 37.5 90.5t90.5 37.5zM512 576q-17.668 0-30.168-12.5t-12.5-30.168v-426.668q0-17.668 12.5-30.168t30.168-12.5 30.168 12.5 12.5 30.168v426.668q0 17.666-12.5 30.166t-30.168 12.5zM853.332 832q-17.668 0-30.168-12.5t-12.5-30.168v-682.668q0-17.668 12.5-30.168t30.168-12.5 30.168 12.5 12.5 30.168v682.668q0 17.668-12.5 30.168t-30.168 12.5z" />
<glyph unicode="&#x48;" glyph-name="heartfull" data-tags="heartfull" d="M753.332 874.668c46.444 0 89.278-11.444 128.5-34.332s70.278-53.944 93.168-93.168 34.332-82.056 34.332-128.5c0-33.332-6.39-65.722-19.168-97.166s-31.39-59.39-55.832-83.834l-422.334-422.332-422.334 422.334c-24.444 24.444-43.056 52.39-55.832 83.834s-19.168 63.834-19.168 97.168c0 46.444 11.444 89.276 34.332 128.5s53.944 70.276 93.168 93.166 82.056 34.332 128.5 34.332c33.556 0 65.944-6.332 97.168-19s59.168-31.332 83.832-56l60.332-60.334 60.332 60.334c24.444 24.444 52.39 43.056 83.832 55.832s63.832 19.166 97.168 19.166z" />
<glyph unicode="&#x49;" glyph-name="verticalcircle" data-tags="verticalcircle" d="M384 789.334c0 35.334 12.5 65.5 37.5 90.5s55.168 37.5 90.5 37.5 65.5-12.5 90.5-37.5 37.5-55.168 37.5-90.5-12.5-65.5-37.5-90.5-55.168-37.5-90.5-37.5-65.5 12.5-90.5 37.5-37.5 55.168-37.5 90.5zM384 106.668c0 35.332 12.5 65.5 37.5 90.5s55.168 37.5 90.5 37.5 65.5-12.5 90.5-37.5 37.5-55.168 37.5-90.5-12.5-65.5-37.5-90.5-55.168-37.5-90.5-37.5-65.5 12.5-90.5 37.5-37.5 55.168-37.5 90.5zM469.334 106.668c0-11.778 4.166-21.832 12.5-30.168s18.39-12.5 30.166-12.5c11.778 0 21.832 4.168 30.168 12.5s12.5 18.388 12.5 30.168-4.168 21.832-12.5 30.168-18.388 12.5-30.168 12.5c-11.776 0-21.832-4.168-30.168-12.5s-12.5-18.388-12.5-30.168zM384 448c0 35.334 12.5 65.5 37.5 90.5s55.168 37.5 90.5 37.5 65.5-12.5 90.5-37.5 37.5-55.168 37.5-90.5-12.5-65.5-37.5-90.5-55.168-37.5-90.5-37.5-65.5 12.5-90.5 37.5-37.5 55.168-37.5 90.5zM469.334 448c0-11.778 4.166-21.832 12.5-30.168s18.39-12.5 30.166-12.5c11.778 0 21.832 4.168 30.168 12.5s12.5 18.39 12.5 30.168-4.168 21.834-12.5 30.168-18.388 12.5-30.168 12.5c-11.776 0-21.832-4.166-30.168-12.5s-12.5-18.39-12.5-30.168zM469.334 789.334c0-11.776 4.166-21.832 12.5-30.166s18.39-12.5 30.166-12.5c11.778 0 21.832 4.166 30.168 12.5s12.5 18.39 12.5 30.166-4.168 21.834-12.5 30.168-18.388 12.5-30.168 12.5c-11.776 0-21.832-4.168-30.168-12.5s-12.5-18.39-12.5-30.168z" />
<glyph unicode="&#x4c;" glyph-name="lock" data-tags="lock" d="M512 917.334q69.668 0 128.5-34.334t93.168-93.168 34.332-128.5v-170.666h85.332q53 0 90.5-37.5t37.5-90.5v-256q0-53-37.5-90.5t-90.5-37.5h-682.668q-53 0-90.5 37.5t-37.5 90.5v256q0 53 37.5 90.5t90.5 37.5h85.332v170.666q0 69.668 34.332 128.5t93.166 93.168 128.5 34.332zM853.332 405.334h-682.668q-17.668 0-30.168-12.5t-12.5-30.168v-256q0-17.668 12.5-30.168t30.168-12.5h682.668q17.668 0 30.168 12.5t12.5 30.168v256q0 17.668-12.5 30.168t-30.168 12.5zM512 832q-70.668 0-120.668-50t-50-120.668v-170.666h341.332v170.666q0 70.668-50 120.668t-120.668 50z" />
<glyph unicode="&#x4d;" glyph-name="location-2" data-tags="location-2" d="M512 917.334q95.668 0 182.5-37.168t149.668-100 100-149.666 37.168-182.5-37.168-182.5-100-149.668-149.668-100-182.5-37.168-182.5 37.168-149.668 100-100 149.668-37.168 182.5 37.168 182.5 100 149.666 149.668 100 182.5 37.168zM554.668 829.668v-125.666q0-17.668-12.5-30.168t-30.168-12.5-30.168 12.5-12.5 30.168v125.666q-66-7.332-125.168-36.332t-103.832-73.668-73.668-103.832-36.332-125.166h125.668q17.666 0 30.166-12.5t12.5-30.168-12.5-30.168-30.168-12.5h-125.668q7.332-66 36.332-125.168t73.668-103.832 103.834-73.668 125.168-36.332v125.668q0 17.668 12.5 30.168t30.168 12.5 30.168-12.5 12.5-30.168v-125.668q66 7.332 125.168 36.332t103.832 73.668 73.668 103.832 36.332 125.168h-125.668q-17.668 0-30.168 12.5t-12.5 30.168 12.5 30.168 30.168 12.5h125.668q-7.332 66-36.332 125.168t-73.668 103.832-103.832 73.668-125.168 36.332z" />
<glyph unicode="&#x4e;" glyph-name="forward" data-tags="forward" d="M667.332 805q-17.332 0-30-12.5t-12.668-30.168 12.668-30.332l198.668-198.668h-409.334q-78 0-149.166-30.332t-122.5-81.834-81.832-122.5-30.5-149.332v-42.668q0-17.668 12.5-30.168t30.168-12.5q17.332 0 30 12.668t12.668 30v42.668q0 60.668 23.668 116t63.668 95.332 95.332 63.668 116 23.668h409.332l-198.668-199q-12.668-12.668-12.668-30 0-17.668 12.5-30.332t30.168-12.668 30.332 12.668l271.334 271.668q12.332 12.334 12.332 30.334 0 17.668-12.332 30l-271.334 271.666q-12.668 12.666-30.332 12.666z" />
<glyph unicode="&#x4f;" glyph-name="layers" data-tags="layers" d="M0 661.334l512 256 512-256-512-256zM512 138.334l416 208.332 96-48-512-256.334-512 256.334 96 48zM512 319.668l416 208 96-48-512-256-512 256 96 48zM833.332 661.334l-321.334 160.668-321.334-160.668 321.334-160.666z" />
<glyph unicode="&#x50;" glyph-name="printer" data-tags="printer" d="M384 874.668h256q53 0 90.5-37.5t37.5-90.5v-213.332h85.332q53 0 90.5-37.5t37.5-90.5v-170.668q0-53-37.5-90.5t-90.5-37.5h-92.668q-13.332-37.668-46.332-61.5t-74.332-23.832h-256q-41.332 0-74.332 23.832t-46.332 61.5h-92.668q-53 0-90.5 37.5t-37.5 90.5v170.668q0 53 37.5 90.5t90.5 37.5h85.332v213.332q0 53 37.5 90.5t90.5 37.5zM640 192h-256q-17.668 0-30.168-12.5t-12.5-30.168 12.5-30.168 30.168-12.5h256q17.668 0 30.168 12.5t12.5 30.168-12.5 30.168-30.168 12.5zM853.332 448h-682.668q-17.668 0-30.168-12.5t-12.5-30.168v-170.668q0-17.668 12.5-30.168t30.168-12.5h92.668q13.334 37.668 46.332 61.5t74.332 23.832h256q41.332 0 74.332-23.832t46.332-61.5h92.668q17.668 0 30.168 12.5t12.5 30.168v170.668q0 17.668-12.5 30.168t-30.168 12.5zM640 789.334h-256q-17.668 0-30.168-12.5t-12.5-30.166v-213.334h341.332v213.334q0 17.666-12.5 30.166t-30.168 12.5z" />
<glyph unicode="&#x51;" glyph-name="disc" data-tags="disc" d="M512 917.334q95.668 0 182.5-37.168t149.668-100 100-149.666 37.168-182.5-37.168-182.5-100-149.668-149.668-100-182.5-37.168-182.5 37.168-149.668 100-100 149.668-37.168 182.5 37.168 182.5 100 149.666 149.668 100 182.5 37.168zM512 832q-78 0-149.168-30.5t-122.5-81.834-81.832-122.5-30.5-149.168 30.5-149.168 81.832-122.5 122.5-81.832 149.168-30.5 149.168 30.5 122.5 81.832 81.832 122.5 30.5 149.168-30.5 149.168-81.832 122.5-122.5 81.834-149.168 30.5zM512 618.668q70.668 0 120.668-50t50-120.668-50-120.668-120.668-50-120.668 50-50 120.668 50 120.668 120.668 50zM512 533.334q-35.332 0-60.332-25t-25-60.334 25-60.332 60.332-25 60.332 25 25 60.332-25 60.334-60.332 25z" />
<glyph unicode="&#x52;" glyph-name="signal" data-tags="signal, wave" d="M512 789.334q131 0 255-46t225-135.332q14.332-12.334 14.332-32 0-16.668-10.668-28.334l-2-2q-12.332-12.332-30-12.332-16.668 0-28.332 10.668-89 78.666-198.5 119.332t-224.832 40.668-224.832-40.668-198.5-119.332q-11.668-10.668-28.332-10.668-19.668 0-32 14.332-10.668 11.668-10.668 28.334 0 19.666 14.332 32 101.332 89.332 225.168 135.332t254.832 46zM512.332 277.334q58 0 107.668-29.332 10-6 15.668-15.832t5.668-21.168-6-21.332q-3-5-6.668-8.668-12.332-12.332-30.332-12.332-12 0-21.332 5.668-30.332 17.668-64.668 17.668-34.668 0-65-17.668-10.666-6-21.668-6-24.332 0-37 21-6 10-6 21.332 0 24.332 21 37 50.332 29.668 108.668 29.668zM512 533q80.668 0 157-26.668t140-79q15.668-12.668 15.668-33 0-15.332-9.668-27-2-2.668-2.668-3.332-12.332-12.332-30-12.332-15.668 0-27.332 9.668-52 42.668-114.668 64.668t-128.332 22-128.332-22-114.668-64.668q-11.666-9.668-27-9.668-20.332 0-33 15.668-9.668 11.668-9.668 27 0 20.332 15.668 33 63.332 52.334 140 79t157 26.668z" />
<glyph unicode="&#x53;" glyph-name="starfull" data-tags="starfull" d="M396.666 576l115.334 355 115.332-355h373.332l-302-209.668 115.332-348.668-302 221-302-219.332 115.332 347-302 209.668h373.334z" />
<glyph unicode="&#x54;" glyph-name="delete" data-tags="delete" d="M341.334 832h554.666q53 0 90.5-37.5t37.5-90.5v-512q0-53-37.5-90.5t-90.5-37.5h-554.668l-341.334 384zM896 746.668h-516.332l-265.334-298.668 265.334-298.666h516.332q17.668 0 30.168 12.5t12.5 30.168v512q0 17.668-12.5 30.168t-30.168 12.5zM810.668 576q0-18-12.332-30.334l-98-97.668 98-97.668q12.332-12.332 12.332-30.332 0-18.332-12.168-30.5t-30.5-12.168q-18 0-30.332 12.332l-97.668 98-97.668-98q-12.332-12.332-30.332-12.332-17.668 0-30.168 12.5t-12.5 30.168q0 17.332 12.334 30.332l98 97.668-98 97.668q-12.334 13-12.334 30.334 0 17.666 12.5 30.166t30.166 12.5q18 0 30.332-12.332l97.668-98 97.668 98q12.332 12.332 30.332 12.332 18.332 0 30.5-12.166t12.168-30.5z" />
<glyph unicode="&#x55;" glyph-name="upload" data-tags="upload" d="M213.332 960h597.332q53 0 90.5-37.5t37.5-90.5v-597.334q0-53-37.5-90.5t-90.5-37.5h-170.668v85.332h170.668q17.668 0 30.168 12.5t12.5 30.168v597.334q0 17.666-12.5 30.166t-30.168 12.5h-597.332q-17.668 0-30.168-12.5t-12.5-30.166v-597.334q0-17.668 12.5-30.168t30.168-12.5h170.668v-85.332h-170.668q-53 0-90.5 37.5t-37.5 90.5v597.334q0 53 37.5 90.5t90.5 37.5zM512 661.334q18 0 30.332-12.332l170.668-170.668q12.332-12.334 12.332-30.334 0-17.668-12.5-30.168t-30.168-12.5q-17.332 0-30.332 12.332l-97.668 98v-537q0-17.668-12.5-30.168t-30.168-12.5-30.168 12.5-12.5 30.166v537l-97.668-98q-13-12.332-30.332-12.332-17.668 0-30.168 12.5t-12.5 30.168q0 17.332 12.334 30.334l170.666 170.666q12.334 12.334 30.332 12.334z" />
<glyph unicode="&#x56;" glyph-name="stack-2" data-tags="stack-2" d="M384 874.668h426.666q53 0 90.5-37.5t37.5-90.5v-426.668q0-53-37.5-90.5t-90.5-37.5h-426.666q-53 0-90.5 37.5t-37.5 90.5v426.668q0 53 37.5 90.5t90.5 37.5zM170.668 696.668v-547.332q0-17.668 12.5-30.168t30.168-12.5h547.332q-13.332-37.668-46.332-61.5t-74.332-23.832h-426.666q-53 0-90.5 37.5t-37.5 90.5v426.668q0 41.334 23.832 74.334t61.5 46.332zM810.668 789.334h-426.666q-17.666 0-30.166-12.5t-12.5-30.166v-426.668q0-17.668 12.5-30.168t30.168-12.5h426.668q17.668 0 30.168 12.5t12.5 30.168v426.668q0 17.666-12.5 30.166t-30.168 12.5z" />
<glyph unicode="&#x57;" glyph-name="globe" data-tags="globe" d="M512 917.334q12 0 18-0.334 62-2.332 120.5-20.5t108.168-48.832 91.168-73.832 70.332-93.832 45-110.168 16.168-121.832-16.168-121.832-45-110.168-70.332-93.832-91.168-73.832-108.168-48.832-120.5-20.5q-6-0.332-18-0.332t-18 0.332q-62 2.332-120.5 20.5t-108.168 48.832-91.168 73.832-70.332 93.832-45 110.168-16.168 121.832 16.168 121.832 45 110.168 70.332 93.832 91.168 73.834 108.168 48.832 120.5 20.5q6 0.332 18 0.332zM300.334 405.334h-170q13.332-119 91.668-209t192.668-120q-43.332 65.668-75.5 148.832t-38.832 180.168zM638.332 405.334h-252.668q3.334-42.668 13.834-85.332t23.5-75.5 30-64.832 30.666-52.668 28.332-39.668q14.668 19 28.332 39.832t30.668 52.832 30 64.832 23.5 75.332 13.832 85.168zM414.666 819.668q-114.334-30-192.668-120t-91.668-209h170q11.666 174 114.332 329zM893.668 405.334h-169.668q-12.332-174.332-114.668-329 114.332 30 192.668 120t91.668 209zM512 808.668q-14.666-19-28.168-39.832t-30.668-52.832-30.168-64.834-23.5-75.332-13.834-85.168h252.666q-3.332 42.668-13.832 85.334t-23.5 75.5-30 64.832-30.668 52.668-28.332 39.666zM609.332 819.668q102.332-154.666 114.668-329h169.668q-13.332 119-91.668 209t-192.668 120z" />
<glyph unicode="&#x59;" glyph-name="air-play" data-tags="air-play" d="M170.668 874.668h682.668q53 0 90.5-37.5t37.5-90.5v-426.668q0-53-37.5-90.5t-90.5-37.5h-106.668l-64 85.332h170.668q17.668 0 30.168 12.5t12.5 30.168v426.668q0 17.666-12.5 30.166t-30.168 12.5h-682.668q-17.668 0-30.168-12.5t-12.5-30.166v-426.668q0-17.668 12.5-30.168t30.168-12.5h170.668l-64-85.332h-106.668q-53 0-90.5 37.5t-37.5 90.5v426.668q0 53 37.5 90.5t90.5 37.5zM597.332 106.668l-85.332 113.668-85.332-113.668h170.668zM256 21.334l256 341.332 256-341.334h-512z" />
<glyph unicode="&#x5a;" glyph-name="zoom-in" data-tags="zoom-in" d="M426.666 917.334q78 0 149.166-30.5t122.5-81.832 81.832-122.5 30.5-149.168q0-67-21.832-128.334t-62.168-111.332l242.332-242q12.332-12.332 12.332-30.332 0-18.332-12.168-30.5t-30.5-12.168q-18 0-30.332 12.332l-242 242.332q-50-40.332-111.332-62.168t-128.332-21.832q-78 0-149.168 30.5t-122.5 81.832-81.832 122.5-30.5 149.168 30.5 149.168 81.832 122.5 122.5 81.832 149.168 30.5zM426.666 832q-60.666 0-116-23.668t-95.332-63.666-63.668-95.334-23.668-116 23.668-116 63.668-95.332 95.332-63.668 116-23.668 116 23.668 95.332 63.668 63.668 95.332 23.668 116-23.668 116-63.668 95.334-95.332 63.666-116 23.668zM426.666 704q17.666 0 30.166-12.5t12.5-30.168v-85.332h85.332q17.668 0 30.168-12.5t12.5-30.168-12.5-30.168-30.168-12.5h-85.332v-85.334q0-17.668-12.5-30.168t-30.168-12.5-30.168 12.5-12.5 30.168v85.334h-85.332q-17.668 0-30.168 12.5t-12.5 30.168 12.5 30.168 30.168 12.5h85.332v85.332q0 17.668 12.5 30.168t30.168 12.5z" />
<glyph unicode="&#x5b;" glyph-name="sun" data-tags="sun" d="M512 704q69.668 0 128.5-34.334t93.168-93.166 34.332-128.5-34.332-128.5-93.168-93.168-128.5-34.332-128.5 34.332-93.168 93.168-34.332 128.5 34.332 128.5 93.168 93.166 128.5 34.334zM240.668 219.334q17.668 0 30.168-12.668t12.5-30.332q0-17.332-12.666-30l-60.332-60.332q-12.668-12.668-30-12.668-17.668 0-30.168 12.5t-12.5 30.168q0 18 12.332 30.332l60.332 60.332q12.668 12.668 30.332 12.668zM512 106.668q17.668 0 30.168-12.5t12.5-30.168v-85.332q0-17.668-12.5-30.166t-30.168-12.5-30.168 12.5-12.5 30.166v85.332q0 17.668 12.5 30.168t30.168 12.5zM42.668 490.668h85.332q17.668 0 30.168-12.5t12.5-30.168-12.5-30.168-30.168-12.5h-85.332q-17.668 0-30.168 12.5t-12.5 30.168 12.5 30.168 30.168 12.5zM512 618.668q-70.668 0-120.668-50t-50-120.668 50-120.668 120.668-50 120.668 50 50 120.668-50 120.668-120.668 50zM783.668 219.334q17.332 0 30-12.668l60.332-60.332q12.668-12.668 12.668-30.332 0-17.332-12.668-30t-30-12.668q-17.668 0-30.332 12.668l-60.332 60.332q-12.332 12.332-12.332 30t12.5 30.332 30.168 12.668zM180.332 822.668q17.332 0 30-12.666l60.332-60.334q12.666-12.666 12.666-30 0-17.666-12.5-30.166t-30.168-12.5q-18 0-30.332 12.332l-60.332 60.332q-12.332 12.334-12.332 30.334 0 17.666 12.5 30.166t30.168 12.5zM512 960q17.668 0 30.168-12.5t12.5-30.166v-85.332q0-17.668-12.5-30.168t-30.168-12.5-30.168 12.5-12.5 30.168v85.332q0 17.666 12.5 30.166t30.168 12.5zM896 490.668h85.332q17.668 0 30.168-12.5t12.5-30.168-12.5-30.168-30.168-12.5h-85.332q-17.668 0-30.168 12.5t-12.5 30.168 12.5 30.168 30.168 12.5zM844 822.668q17.332 0 30-12.666t12.668-30q0-17.668-12.668-30.334l-60.332-60.332q-12.332-12.332-30-12.332-18.332 0-30.5 12.166t-12.168 30.5q0 17.666 12.332 30l60.332 60.332q12.668 12.668 30.332 12.668z" />
<glyph unicode="&#x5c;" glyph-name="ban" data-tags="ban" d="M512 917.334q95.668 0 182.5-37.168t149.668-100 100-149.666 37.168-182.5-37.168-182.5-100-149.668-149.668-100-182.5-37.168-182.5 37.168-149.668 100-100 149.668-37.168 182.5 37.168 182.5 100 149.666 149.668 100 182.5 37.168zM751.668 148l-539.668 539.668q-40-50.332-62-111.666t-22-128q0-78 30.5-149.168t81.832-122.5 122.5-81.832 149.168-30.5q67 0 128.332 21.832t111.332 62.168zM512 832q-67 0-128.332-21.834t-111.332-62.166l539.668-539.668q40.332 50 62.168 111.332t21.832 128.332q0 78-30.5 149.168t-81.832 122.5-122.5 81.832-149.168 30.5z" />
<glyph unicode="&#x5d;" glyph-name="columns" data-tags="columns" d="M128 832h768q53 0 90.5-37.5t37.5-90.5v-512q0-53-37.5-90.5t-90.5-37.5h-768q-53 0-90.5 37.5t-37.5 90.5v512q0 53 37.5 90.5t90.5 37.5zM298.666 149.334v597.334h-170.668q-17.668 0-30.168-12.5t-12.5-30.168v-512q0-17.668 12.5-30.168t30.168-12.5h170.668zM640 149.334v597.334h-256v-597.334h256zM896 746.668h-170.668v-597.332h170.668q17.668 0 30.168 12.5t12.5 30.168v512q0 17.668-12.5 30.168t-30.168 12.5z" />
<glyph unicode="&#x5e;" glyph-name="simply-up" data-tags="simply-up" d="M243.668 305.668c-8.224-8.222-18.332-12.332-30.332-12.332-12.224 0-22.39 4.054-30.5 12.168s-12.168 18.278-12.168 30.5c0 12 4.11 22.11 12.332 30.332l298.666 298.668c8.224 8.222 18.334 12.334 30.334 12.334s22.11-4.112 30.332-12.334l298.668-298.668c8.222-8.222 12.332-18.332 12.332-30.332 0-12.222-4.054-22.39-12.168-30.5s-18.278-12.168-30.5-12.168c-12 0-22.112 4.112-30.332 12.332l-268.334 268.334-268.334-268.334z" />
<glyph unicode="&#x5f;" glyph-name="home" data-tags="home" d="M968.864 468.082l-426.692 426.696c-16.664 16.664-43.678 16.664-60.34 0l-426.696-426.696c-16.662-16.664-16.662-43.678 0-60.34s43.676-16.664 60.34 0l52.14 52.14v-375.096c0-52.968 43.092-96.060 96.060-96.060h496.652c52.97 0 96.062 43.092 96.062 96.060v375.094l52.14-52.14c8.332-8.332 19.25-12.496 30.172-12.496s21.838 4.164 30.168 12.496c16.664 16.664 16.664 43.676 0 60.34zM580.192 74.060h-136.388v244.208c0 5.914 4.812 10.726 10.728 10.726h114.932c5.914 0 10.726-4.812 10.726-10.726v-244.208zM771.052 84.788c0-5.914-4.812-10.726-10.728-10.726h-94.8v244.208c0 52.968-43.092 96.060-96.060 96.060h-114.93c-52.968 0-96.060-43.092-96.060-96.060v-244.208h-94.8c-5.916 0-10.728 4.812-10.728 10.726v460.428l259.056 259.054 259.052-259.054v-460.428z" />
<glyph unicode="&#x60;" glyph-name="microphone" data-tags="microphone" d="M810.668 576q17.668 0 30.168-12.5t12.5-30.168v-85.334q0-64-23.168-123.168t-63-103.668-95-74.332-117.5-37.5v-88h128q17.668 0 30.168-12.5t12.5-30.168-12.5-30.168-30.168-12.5h-341.334q-17.666 0-30.166 12.5t-12.5 30.166 12.5 30.168 30.168 12.5h128v88q-62.332 7.668-117.5 37.5t-95 74.332-63 103.668-23.168 123.168v85.334q0 17.666 12.5 30.166t30.168 12.5 30.168-12.5 12.5-30.166v-85.334q0-69.668 34.332-128.5t93.168-93.168 128.5-34.332 128.5 34.332 93.168 93.168 34.332 128.5v85.334q0 17.666 12.5 30.166t30.168 12.5zM512 960q70.668 0 120.668-50t50-120.668v-341.332q0-70.668-50-120.668t-120.668-50-120.668 50-50 120.668v341.334q0 70.668 50 120.668t120.668 50zM512 874.668q-35.332 0-60.332-25t-25-60.332v-341.334q0-35.332 25-60.332t60.332-25 60.332 25 25 60.332v341.334q0 35.332-25 60.332t-60.332 25z" />
<glyph unicode="&#x61;" glyph-name="share" data-tags="share" d="M768 874.668q70.668 0 120.668-50t50-120.666-50-120.668-120.668-50q-37.668 0-71.168 15.5t-57.5 43.168l-216.332-108.334q3.666-17.668 3.666-35.668t-3.666-35.668l216.332-108.332q24 27.668 57.5 43.168t71.168 15.5q70.668 0 120.668-50t50-120.668-50-120.668-120.668-50-120.668 50-50 120.668q0 18 3.668 35.668l-216.332 108.332q-24-27.668-57.5-43.168t-71.168-15.5q-70.668 0-120.668 50t-50 120.668 50 120.668 120.668 50q37.668 0 71.168-15.5t57.5-43.166l216.332 108.332q-3.668 17.668-3.668 35.668 0 70.666 50 120.666t120.668 50zM256 533.334q-35.332 0-60.332-25t-25-60.334 25-60.332 60.332-25 60.332 25 25 60.332-25 60.334-60.332 25zM768 277.334q-35.332 0-60.332-25t-25-60.332 25-60.332 60.332-25 60.332 25 25 60.332-25 60.332-60.332 25zM768 789.334q-35.332 0-60.332-25t-25-60.332 25-60.334 60.332-25 60.332 25 25 60.334-25 60.332-60.332 25z" />
<glyph unicode="&#x62;" glyph-name="speech-bubble" data-tags="speech-bubble" d="M170.668 917.334h682.668q53 0 90.5-37.5t37.5-90.5v-469.332q0-53-37.5-90.5t-90.5-37.5h-341.334l-298.666-213.332v213.332h-42.668q-53 0-90.5 37.5t-37.5 90.5v469.334q0 53 37.5 90.5t90.5 37.5zM853.332 832h-682.668q-17.668 0-30.168-12.5t-12.5-30.168v-469.332q0-17.668 12.5-30.168t30.168-12.5h128v-133l186 133h368.666q17.668 0 30.168 12.5t12.5 30.168v469.334q0 17.668-12.5 30.168t-30.168 12.5z" />
<glyph unicode="&#x63;" glyph-name="check" data-tags="check" d="M896 746.668q18.332 0 30.5-12.166t12.168-30.5q0-18-12.332-30.334l-512-512q-12.334-12.332-30.332-12.332t-30.332 12.332l-256 256q-12.332 12.332-12.332 30.332 0 18.332 12.168 30.5t30.5 12.166q18 0 30.332-12.334l225.668-226 481.666 482q12.332 12.334 30.332 12.334z" />
<glyph unicode="&#x64;" glyph-name="inbox" data-tags="inbox" d="M512 917.334q17.668 0 30.168-12.5t12.5-30.168v-494.334l140.332 140.668q12.332 12.334 30.332 12.334 18.332 0 30.5-12.166t12.168-30.5q0-18-12.332-30.334l-213.332-213.332q-12.332-12.332-30.332-12.332t-30.332 12.332l-213.332 213.332q-12.334 13-12.334 30.334 0 17.668 12.5 30.168t30.166 12.5q18 0 30.332-12.334l140.332-140.668v494.334q0 17.668 12.5 30.168t30.168 12.5zM938.668 320q17.668 0 30.168-12.5t12.5-30.168v-170.668q0-53.332-37-90.332-37.668-37.668-90-37.668h-683.668q-52.332 0-90.668 37.332-37.332 38.332-37.332 90.668v170.668q0 17.668 12.5 30.168t30.168 12.5 30.168-12.5 12.5-30.168v-170.668q0-17.668 12.5-30.168t30.168-12.5h683.668q17.332 0 29.5 12.5t12.168 30.168v170.668q0 17.668 12.5 30.168t30.168 12.5z" />
<glyph unicode="&#x65;" glyph-name="eye" data-tags="eye" d="M512 832q69.668 0 135.5-21.168t115.5-55 93.5-74.832 73.668-82 51.668-74.834 32.168-54.832l10-21.334q-2.332-5-6.332-13.5t-18.832-34.668-31.668-51.668-44.332-60-56.832-64.332-69.5-60.168-82.332-51.5-94.832-34.668-107.332-13.5q-69.668 0-135.5 21.168t-115.5 54.832-93.5 74.332-73.668 81.5-51.668 74.5-32.168 55l-10 21q2.334 5 6.334 13.5t18.832 34.834 31.668 51.832 44.332 60.334 56.832 64.666 69.5 60.334 82.334 51.832 94.832 34.832 107.332 13.5zM512 746.668q-46.668 0-91.668-12.332t-81.168-31.832-70.668-47.168-59.668-54.5-48.832-57.666-37.668-52.834-26.332-44q12.332-21.668 26.332-43.5t37.668-52.332 48.832-57 59.668-53.832 70.668-46.668 81.168-31.5 91.668-12.168 91.668 12.332 81.168 31.668 70.668 46.832 59.668 54.168 48.832 57.332 37.668 52.668 26.332 43.668q-12.332 21.668-26.332 43.668t-37.668 52.668-48.832 57.332-59.668 54.168-70.668 46.832-81.168 31.668-91.668 12.332zM512 618.668q70.668 0 120.668-50t50-120.668-50-120.668-120.668-50-120.668 50-50 120.668 50 120.668 120.668 50zM512 533.334q-35.332 0-60.332-25t-25-60.334 25-60.332 60.332-25 60.332 25 25 60.332-25 60.334-60.332 25z" />
<glyph unicode="&#x66;" glyph-name="folder" data-tags="folder" d="M170.668 874.668h213.332l85.332-128h384q53 0 90.5-37.5t37.5-90.5v-469.332q0-53-37.5-90.5t-90.5-37.5h-682.668q-53 0-90.5 37.5t-37.5 90.5v597.332q0 53 37.5 90.5t90.5 37.5zM423.666 661.334l-82.334 128h-170.668q-17.668 0-30.168-12.5t-12.5-30.168v-597.332q0-17.668 12.5-30.168t30.168-12.5h682.668q17.668 0 30.168 12.5t12.5 30.168v469.334q0 17.668-12.5 30.168t-30.168 12.5h-429.666z" />
<glyph unicode="&#x67;" glyph-name="cog" data-tags="cog" d="M512 960q53 0 90.5-37.5t37.5-90.5v-22q15.668-5.334 37.668-15.334l15.332 15.334q37.668 37.666 90.668 37.666 52.668 0 90.332-37.666t37.668-90.334q0-53-37.668-90.666l-15.332-15.334q10-22 15.332-37.666h22q53 0 90.5-37.5t37.5-90.5-37.5-90.5-90.5-37.5h-22q-5.332-15.668-15.332-37.668l15.332-15.332q37.668-37.668 37.668-90.668 0-52.668-37.668-90.332t-90.332-37.668q-53 0-90.668 37.668l-15.332 15.332q-22-10-37.668-15.332v-22q0-53-37.5-90.5t-90.5-37.5-90.5 37.5-37.5 90.5v22q-15.666 5.332-37.668 15.332l-15.334-15.332q-37.666-37.668-90.332-37.668-53 0-90.5 37.668t-37.5 90.332q0 53.332 37.332 90.668l15.332 15.332q-10 22-15.332 37.668h-22q-53 0-90.5 37.5t-37.5 90.5 37.5 90.5 90.5 37.5h22q5.332 15.666 15.332 37.666l-15.332 15.334q-37.332 37.334-37.332 90.666 0 52.668 37.5 90.334t90.5 37.666q52.668 0 90.332-37.666l15.334-15.334q22 10 37.668 15.334v22q0 53 37.5 90.5t90.5 37.5zM512 874.668q-17.668 0-30.168-12.5t-12.5-30.166v-88.334q-74.668-10.666-136.332-56.332l-62.332 62.332q-12.666 12.668-30 12.668-17.668 0-30.168-12.5t-12.5-30.168q0-18 12.332-30.332l62.334-62.332q-45.668-61.668-56.332-136.334h-88.332q-17.668 0-30.168-12.5t-12.5-30.168 12.5-30.168 30.168-12.5h88.332q10.668-74.668 56.332-136.332l-62.332-62.332q-12.332-12.332-12.332-30.332 0-17.668 12.5-30.168t30.168-12.5q17.332 0 30 12.668l62.332 62.332q61.668-45.668 136.332-56.332v-88.332q0-17.668 12.5-30.168t30.168-12.5 30.168 12.5 12.5 30.168v88.332q74.668 10.668 136.332 56.332l62.332-62.332q12.668-12.668 30.332-12.668t30.168 12.5 12.5 30.168-12.668 30.332l-62.332 62.332q45.668 61.668 56.332 136.332h88.332q17.668 0 30.168 12.5t12.5 30.168-12.5 30.168-30.168 12.5h-88.332q-10.668 74.668-56.332 136.334l62.332 62.332q12.668 12.668 12.668 30.334t-12.5 30.166-30.168 12.5-30.332-12.666l-62.332-62.334q-61.668 45.668-136.332 56.334v88.332q0 17.668-12.5 30.168t-30.168 12.5zM512 618.668q70.668 0 120.668-50t50-120.668-50-120.668-120.668-50-120.668 50-50 120.668 50 120.668 120.668 50zM512 533.334q-35.332 0-60.332-25t-25-60.334 25-60.332 60.332-25 60.332 25 25 60.332-25 60.334-60.332 25z" />
<glyph unicode="&#x68;" glyph-name="heart" data-tags="heart" d="M753.332 874.668q69.668 0 128.5-34.332t93.168-93.168 34.332-128.5q0-50-19.168-97.166t-55.832-83.834l-422.334-422.332-422.334 422.334q-36.668 36.668-55.832 83.834t-19.168 97.168q0 69.666 34.332 128.5t93.168 93.166 128.5 34.332q50.332 0 97.168-19t83.832-56l60.332-60.334 60.332 60.334q36.668 36.666 83.832 55.832t97.168 19.166zM753.332 789.334q-33.332 0-64.668-12.666t-56-37.334l-120.668-120.666-120.668 120.666q-24.668 24.668-56 37.334t-64.668 12.666q-46.668 0-85.832-22.832t-62-62-22.832-85.834q0-33.332 12.668-64.666t37.332-56l362-362 362 362q24.668 24.668 37.332 56t12.668 64.666q0 46.668-22.832 85.834t-62 62-85.832 22.832z" />
<glyph unicode="&#x69;" glyph-name="image" data-tags="image" d="M170.668 917.334h682.668q53 0 90.5-37.5t37.5-90.5v-682.668q0-53-37.5-90.5t-90.5-37.5h-682.668q-53 0-90.5 37.5t-37.5 90.5v682.668q0 53 37.5 90.5t90.5 37.5zM896 217l-213.332 213.332-366.334-366.332h537q17.668 0 30.168 12.5t12.5 30.168v110.332zM853.332 832h-682.668q-17.668 0-30.168-12.5t-12.5-30.168v-682.668q0-17.668 12.5-30.168t30.168-12.5h25l487 487 213.332-213.332v451.668q0 17.666-12.5 30.166t-30.168 12.5zM341.334 746.668q53 0 90.5-37.5t37.5-90.5-37.5-90.5-90.5-37.5-90.5 37.5-37.5 90.5 37.5 90.5 90.5 37.5zM341.334 661.334q-17.666 0-30.166-12.5t-12.5-30.168 12.5-30.166 30.168-12.5 30.168 12.5 12.5 30.166-12.5 30.168-30.168 12.5z" />
<glyph unicode="&#x6a;" glyph-name="head" data-tags="head" d="M512 960q69.668 0 128.5-34.332t93.168-93.166 34.332-128.5v-128q0-53.334-20.668-101t-57.668-83q97.332-15.332 173-45.168t118.5-70.5 42.832-85.668v-84q0-53-37.5-90.5t-90.5-37.5h-768q-53 0-90.5 37.5t-37.5 90.5v84.332q0 45 42.832 85.668t118.332 70.5 172.834 44.832q-36.668 35.668-57.332 83.168t-20.668 100.832v128q0 69.668 34.332 128.5t93.166 93.168 128.5 34.332zM512 320q-92.668 0-178.832-14.832t-150.168-41.5q-25.668-10.668-45.832-22.668t-30.668-21.668-15.832-16.832-5.332-11.5v-84.332q0-17.668 12.5-30.168t30.168-12.5h768q17.668 0 30.168 12.5t12.5 30.168v84q0 4.332-5.332 11.5t-15.832 16.832-30.668 21.668-45.832 23q-64 26.668-150.168 41.5t-178.832 14.832zM512 874.668q-70.668 0-120.668-50t-50-120.666v-128q0-70.668 50-120.668t120.668-50 120.668 50 50 120.668v128q0 70.666-50 120.666t-120.668 50z" />
<glyph unicode="&#x6b;" glyph-name="pen2" data-tags="pen2" d="M906.36 842.362c-49.982 49.982-115.492 74.972-181 74.972s-131.020-24.992-181-74.972c-0.010-0.010-0.020-0.020-0.028-0.028l-398.39-398.39v-300.716l-65.752-65.754c-16.924-16.922-16.924-44.36 0-61.284 8.46-8.462 19.552-12.692 30.642-12.692s22.18 4.23 30.64 12.692l65.752 65.752h300.718l398.416 398.416c99.964 99.964 99.964 262.036 0 362zM232.61 403.448l234.836-234.836h-234.836v234.836zM845.078 541.644l-314.050-314.048-239.432 239.436 314.048 314.048c31.976 31.978 74.496 49.588 119.716 49.588 45.224 0 87.74-17.61 119.716-49.588s49.588-74.494 49.588-119.716-17.61-87.74-49.588-119.72z" />
<glyph unicode="&#x6c;" glyph-name="link" data-tags="link" d="M725.332 917.334q50.332 0 97.168-19t83.832-56 56-83.832 19-97.168q0-50-19.168-97.166t-55.832-83.834l-128-128q-3.668-3.668-11-10.332-35.668-31.668-79.668-48.168t-90.332-16.5q-58.332 0-110.332 25-39 18.332-70.668 50t-50 70.668q25 25 60.332 25 12.334 0 25-3.668 21.668-35 56.668-56.668 41-25 89-25 33.332 0 64.668 12.668t56 37.332l128 128q24.668 24.666 37.332 56t12.668 64.666-12.668 64.668-37.332 56-56 37.332-64.668 12.668-64.668-12.668-56-37.332l-89.668-89.668q-42.668 11.668-88.332 11.668-7.334 0-20.668-0.668 6.666 7.334 10.334 11l128 128q36.668 36.668 83.832 55.834t97.168 19.166zM426.666 618.668q58.334 0 110.334-25 39-18.334 70.668-50t50-70.666q-25-25-60.332-25-12.332 0-25 3.668-21.668 35-56.668 56.666-41 25-89 25-33.332 0-64.668-12.666t-56-37.334l-128-128q-24.668-24.668-37.332-56t-12.668-64.668 12.668-64.668 37.332-56 56-37.332 64.668-12.668 64.668 12.668 56 37.332l89.668 89.668q42.668-11.668 88.332-11.668 7.332 0 20.668 0.668-6.668-7.332-10.332-11l-128-128q-37-37-83.832-56t-97.168-19q-50 0-97.168 19.168t-83.832 55.832q-37 37-56 83.832t-19 97.168 19 97.168 56 83.832l128 128q3.668 3.666 11 10.332 35.668 31.668 79.668 48.168t90.332 16.5z" />
<glyph unicode="&#x6d;" glyph-name="mail" data-tags="mail" d="M170.668 832h682.668q53 0 90.5-37.5t37.5-90.5v-512q0-53-37.5-90.5t-90.5-37.5h-682.668q-53 0-90.5 37.5t-37.5 90.5v512q0 53 37.5 90.5t90.5 37.5zM896 192v466l-357.334-286q-11.332-9.332-26.668-9.332t-26.668 9.332l-357.334 286v-466q0-17.668 12.5-30.168t30.168-12.5h682.668q17.668 0 30.168 12.5t12.5 30.168zM853.332 746.668h-682.668q-6.332 0-14-2.332l355.334-284.334 355.334 284.334q-7.668 2.332-14 2.332z" />
<glyph unicode="&#x6f;" glyph-name="paper" data-tags="paper" d="M213.332 960h597.332q53 0 90.5-37.5t37.5-90.5v-768q0-53-37.5-90.5t-90.5-37.5h-597.332q-53 0-90.5 37.5t-37.5 90.5v768q0 53 37.5 90.5t90.5 37.5zM341.334 234.668h341.334q17.668 0 30.168-12.5t12.5-30.168-12.5-30.168-30.168-12.5h-341.334q-17.666 0-30.166 12.5t-12.5 30.168 12.5 30.168 30.168 12.5zM341.334 405.334h341.334q17.668 0 30.168-12.5t12.5-30.168-12.5-30.168-30.168-12.5h-341.334q-17.666 0-30.166 12.5t-12.5 30.168 12.5 30.168 30.168 12.5zM810.668 874.668h-597.332q-17.668 0-30.168-12.5t-12.5-30.166v-768q0-17.668 12.5-30.168t30.168-12.5h597.332q17.668 0 30.168 12.5t12.5 30.168v768q0 17.666-12.5 30.166t-30.168 12.5zM341.334 576h341.334q17.668 0 30.168-12.5t12.5-30.168-12.5-30.168-30.168-12.5h-341.334q-17.666 0-30.166 12.5t-12.5 30.168 12.5 30.168 30.168 12.5zM341.334 746.668h170.666q17.668 0 30.168-12.5t12.5-30.166-12.5-30.168-30.168-12.5h-170.668q-17.668 0-30.168 12.5t-12.5 30.168 12.5 30.166 30.168 12.5z" />
<glyph unicode="&#x70;" glyph-name="camera" data-tags="camera" d="M341.334 874.668h341.334l85.332-128h128q53 0 90.5-38.166t37.5-91.168v-468.668q0-53-37.5-90.168t-90.5-37.168h-768q-53 0-90.5 37.5t-37.5 90.5v468.668q0 53 37.5 90.832t90.5 37.832h128zM512 618.668q43.332 0 82.832-17t68-45.5 45.5-68 17-82.834-17-82.832-45.5-68-68-45.5-82.832-17-82.832 17-68 45.5-45.5 68-17 82.832 17 82.834 45.5 68 68 45.5 82.832 17zM512 533.334q-53 0-90.5-37.5t-37.5-90.5 37.5-90.5 90.5-37.5 90.5 37.5 37.5 90.5-37.5 90.5-90.5 37.5zM722.332 661.334l-83.668 128h-251.668l-85.332-128h-173.668q-17.668 0-30.168-12.668t-12.5-30.666v-468.668q0-17.668 12.5-30.168t30.168-12.5h768q18 0 30.332 12.168t12.332 29.832v468.668q0 18-12.668 31t-30 13h-173.668z" />
<glyph unicode="&#x71;" glyph-name="power" data-tags="power" d="M813.668 707q59-59 91.332-135.668 33.668-79.332 33.668-166t-33.668-166q-32.332-76.668-91.332-135.668t-135.668-91.332q-79.332-33.668-166-33.668t-166 33.668q-76.668 32.332-135.668 91.332t-91.332 135.668q-33.668 79.332-33.668 166t33.668 166q32.332 76.668 91.332 135.668 12.332 12.332 30 12.332t30.332-12.332 12.666-30-12.666-30.334q-47-47-73.332-108.332-26.668-64-26.668-133t26.668-133q26.332-61.332 73.332-108.332t108.334-73.332q64-26.668 133-26.668t133 26.668q61.332 26.332 108.332 73.332t73.332 108.332q26.668 64 26.668 133t-26.668 133q-26.332 61.332-73.332 108.332-12.668 12.668-12.668 30.334t12.668 30 30.332 12.332 30-12.332zM512 917.334q17.668 0 30.168-12.5t12.5-30.168v-426.668q0-17.668-12.5-30.168t-30.168-12.5-30.168 12.5-12.5 30.168v426.668q0 17.668 12.5 30.168t30.168 12.5z" />
<glyph unicode="&#x72;" glyph-name="reload" data-tags="reload" d="M469.334 874.668q83 0 160.666-31.332 79.668-32.332 141-93.668 0.332-0.332 125-122.332v162q0 17.668 12.5 30.168t30.168 12.5 30.168-12.5 12.5-30.168v-256q0-17.666-12.5-30.166t-30.168-12.5h-256q-17.668 0-30.168 12.5t-12.5 30.168 12.5 30.166 30.168 12.5h144q-92.668 90-116 113.334-49.668 49.666-113 75-61 25-128.332 25t-128.332-25q-63.668-25.334-113-75-49.332-49.334-75-113-25-61-25-128.334t25-128.332q25.668-63.668 75-113 49.332-49.668 113-75 61-25 128.332-25t128.332 25q63.332 25.332 113 75 55.332 55.332 80.668 127.668 5.668 16.668 21.668 24.168t32.668 1.832q16.668-6 24.332-22t1.668-32.668q-15.332-43.668-41.5-85.332t-59.168-74q-61.332-61.332-141-93.668-77.668-31.332-160.668-31.332t-160.668 31.332q-79.668 32.332-141 93.668t-93.668 141q-31.332 77.668-31.332 160.668t31.332 160.668q32.332 79.668 93.668 141t141 93.668q77.668 31.332 160.668 31.332z" />
<glyph unicode="&#x73;" glyph-name="star" data-tags="star" d="M396.666 576l115.334 355 115.332-355h373.332l-302-209.668 115.332-348.668-302 221-302-219.332 115.332 347-302 209.668h373.334zM565.332 490.668l-53.332 169.666-53.332-169.666h-165.668l133.332-88.334-52.332-157.668 138.332 100 137.668-101-52.332 157.668 133 89.334h-165.332z" />
<glyph unicode="&#x74;" glyph-name="trash" data-tags="trash" d="M426.666 917.334h170.666q53 0 90.5-37.5t37.5-90.5v-42.666h170.668q17.668 0 30.168-12.5t12.5-30.166-12.5-30.168-30.168-12.5h-42.668v-512q0-53-37.5-90.5t-90.5-37.5h-426.666q-53 0-90.5 37.5t-37.5 90.5v512h-42.668q-17.668 0-30.168 12.5t-12.5 30.168 12.5 30.166 30.168 12.5h170.668v42.668q0 53 37.5 90.5t90.5 37.5zM768 149.334v512h-512v-512q0-17.668 12.5-30.168t30.168-12.5h426.668q17.668 0 30.168 12.5t12.5 30.168zM597.332 832h-170.668q-17.668 0-30.168-12.5t-12.5-30.168v-42.666h256v42.666q0 17.668-12.5 30.168t-30.168 12.5z" />
<glyph unicode="&#x75;" glyph-name="outbox" data-tags="outbox" d="M512 915.334q18 0 30.332-12.334l213.332-213.332q12.332-12.332 12.332-30.332 0-18.334-12.168-30.5t-30.5-12.168q-18 0-30.332 12.332l-140.332 140.668v-494.334q0-17.668-12.5-30.168t-30.168-12.5-30.168 12.5-12.5 30.168v494.334l-140.332-140.668q-13-12.332-30.332-12.332-17.668 0-30.168 12.5t-12.5 30.168q0 17.332 12.334 30.332l213.334 213.334q12.334 12.332 30.332 12.332zM938.668 318q17.668 0 30.168-12.5t12.5-30.168v-170.668q0-53.332-37-90.332-37.668-37.668-90-37.668h-683.668q-52.332 0-90.668 37.332-37.332 38.332-37.332 90.668v170.668q0 17.668 12.5 30.168t30.168 12.5 30.168-12.5 12.5-30.168v-170.668q0-17.668 12.5-30.168t30.168-12.5h683.668q17.332 0 29.5 12.5t12.168 30.168v170.668q0 17.668 12.5 30.168t30.168 12.5z" />
<glyph unicode="&#x76;" glyph-name="video" data-tags="video" d="M128 746.668h469.334q53 0 90.5-37.5t37.5-90.5v-77.666l298.666 163v-512l-298.666 163v-77.668q0-53-37.5-90.5t-90.5-37.5h-469.334q-53 0-90.5 37.5t-37.5 90.5v341.334q0 53 37.5 90.5t90.5 37.5zM597.332 661.334h-469.334q-17.668 0-30.168-12.5t-12.5-30.168v-341.332q0-17.668 12.5-30.168t30.168-12.5h469.334q17.668 0 30.168 12.5t12.5 30.168v341.334q0 17.668-12.5 30.168t-30.168 12.5zM938.668 335.668v224.668l-205.668-112.334z" />
<glyph unicode="&#x77;" glyph-name="watch" data-tags="watch" d="M384 960h256q53 0 90.5-37.5t37.5-90.5v-98q60-53.334 94-127.834t34-158.168-34-158-94-128v-98q0-53-37.5-90.5t-90.5-37.5h-256q-53 0-90.5 37.5t-37.5 90.5v98q-60 53.668-94 128t-34 158 34 158.168 94 127.834v98q0 53 37.5 90.5t90.5 37.5zM682.668 64v40q-80-40-170.668-40t-170.668 40v-40q0-17.668 12.5-30.168t30.168-12.5h256q17.668 0 30.168 12.5t12.5 30.168zM512 746.668q-60.668 0-116-23.666t-95.332-63.668-63.668-95.332-23.668-116 23.668-116 63.668-95.332 95.332-63.668 116-23.668 116 23.668 95.332 63.668 63.668 95.332 23.668 116-23.668 116-63.668 95.332-95.332 63.668-116 23.668zM512 661.334q17.668 0 30.168-12.5t12.5-30.168v-153l73-72.668q12.332-12.332 12.332-30.332t-12.332-30.332-30.332-12.332-30.332 12.332l-85.332 85.332q-12.334 12.332-12.334 30.332v170.668q0 17.668 12.5 30.168t30.166 12.5zM640 874.668h-256q-17.668 0-30.168-12.5t-12.5-30.166v-40q80 40 170.668 40t170.668-40v40q0 17.666-12.5 30.166t-30.168 12.5z" />
<glyph unicode="&#x78;" glyph-name="cross" data-tags="cross" d="M810.668 789.334q18.332 0 30.5-12.166t12.168-30.5q0-18-12.332-30.334l-268.668-268.332 268.666-268.334q12.332-12.332 12.332-30.332 0-18.332-12.168-30.5t-30.5-12.168q-18 0-30.332 12.332l-268.332 268.668-268.334-268.666q-12.332-12.332-30.332-12.332-18.332 0-30.5 12.168t-12.168 30.5q0 18 12.332 30.332l268.666 268.334-268.666 268.334q-12.332 12.332-12.332 30.332 0 18.334 12.168 30.5t30.5 12.168q18 0 30.332-12.334l268.334-268.666 268.334 268.666q12.332 12.332 30.332 12.332z" />
<glyph unicode="&#x79;" glyph-name="toggle" data-tags="toggle" d="M341.334 789.334h341.334q69.332 0 132.5-27t109-72.832 72.832-109 27-132.5-27-132.5-72.832-109-109-72.832-132.5-27h-341.334q-69.334 0-132.5 27t-109 72.832-72.832 109-27 132.5 27 132.5 72.832 109 109 72.832 132.5 27zM341.334 618.668q70.666 0 120.666-50t50-120.668-50-120.668-120.668-50-120.668 50-50 120.668 50 120.668 120.668 50zM341.334 533.334q-35.334 0-60.334-25t-25-60.334 25-60.332 60.332-25 60.332 25 25 60.332-25 60.334-60.332 25zM682.668 704h-341.334q-69.666 0-128.5-34.334t-93.168-93.166-34.332-128.5 34.332-128.5 93.168-93.168 128.5-34.332h341.334q69.668 0 128.5 34.332t93.168 93.168 34.332 128.5-34.332 128.5-93.168 93.166-128.5 34.334z" />
<glyph unicode="&#x7a;" glyph-name="search" data-tags="search" d="M426.666 917.334q78 0 149.166-30.5t122.5-81.832 81.832-122.5 30.5-149.168q0-67-21.832-128.334t-62.168-111.332l242.332-242q12.332-12.332 12.332-30.332 0-18.332-12.168-30.5t-30.5-12.168q-18 0-30.332 12.332l-242 242.332q-50-40.332-111.332-62.168t-128.332-21.832q-78 0-149.168 30.5t-122.5 81.832-81.832 122.5-30.5 149.168 30.5 149.168 81.832 122.5 122.5 81.832 149.168 30.5zM426.666 832q-60.666 0-116-23.668t-95.332-63.666-63.668-95.334-23.668-116 23.668-116 63.668-95.332 95.332-63.668 116-23.668 116 23.668 95.332 63.668 63.668 95.332 23.668 116-23.668 116-63.668 95.334-95.332 63.666-116 23.668z" />
<glyph unicode="&#x7b;" glyph-name="fileupload" data-tags="fileupload" d="M213.332 960h597.332c35.332 0 65.5-12.5 90.5-37.5s37.5-55.166 37.5-90.5v-768c0-35.332-12.5-65.5-37.5-90.5s-55.168-37.5-90.5-37.5h-597.332c-35.332 0-65.5 12.5-90.5 37.5s-37.5 55.168-37.5 90.5v768c0 35.332 12.5 65.5 37.5 90.5s55.168 37.5 90.5 37.5zM810.668 874.668h-597.332c-11.776 0-21.832-4.168-30.168-12.5s-12.5-18.39-12.5-30.166v-768c0-11.778 4.168-21.832 12.5-30.168s18.39-12.5 30.168-12.5h597.332c11.778 0 21.832 4.168 30.168 12.5s12.5 18.39 12.5 30.168v768c0 11.776-4.168 21.832-12.5 30.166s-18.39 12.5-30.168 12.5zM512 682.668c11.778 0 21.89-4.222 30.332-12.666l128-128c8.222-8.224 12.332-18.224 12.332-30 0-12.224-4.056-22.39-12.168-30.5s-18.278-12.166-30.5-12.166c-12 0-22.11 4.11-30.332 12.334l-55 55.334v-281c0-11.778-4.168-21.832-12.5-30.168s-18.39-12.5-30.168-12.5-21.832 4.168-30.168 12.5-12.5 18.39-12.5 30.168v281l-55-55.334c-8.224-8.224-18.332-12.334-30.332-12.334-11.776 0-21.832 4.166-30.168 12.5s-12.5 18.39-12.5 30.166c0 11.334 4.11 21.332 12.334 30l128 128c8.444 8.444 18.556 12.666 30.334 12.666z" />
<glyph unicode="&#x7c;" glyph-name="unlock" data-tags="unlock" d="M512 917.334q69.668 0 128.5-34.334t93.168-93.168 34.332-128.5v-42.666q0-17.668-12.5-30.168t-30.168-12.5-30.168 12.5-12.5 30.168v42.666q0 70.668-50 120.668t-120.668 50-120.668-50-50-120.668v-170.666h512q53 0 90.5-37.5t37.5-90.5v-256q0-53-37.5-90.5t-90.5-37.5h-682.668q-53 0-90.5 37.5t-37.5 90.5v256q0 53 37.5 90.5t90.5 37.5h85.332v170.666q0 69.668 34.332 128.5t93.166 93.168 128.5 34.332zM853.332 405.334h-682.668q-17.668 0-30.168-12.5t-12.5-30.168v-256q0-17.668 12.5-30.168t30.168-12.5h682.668q17.668 0 30.168 12.5t12.5 30.168v256q0 17.668-12.5 30.168t-30.168 12.5z" />
<glyph unicode="&#x7d;" glyph-name="square-cross" data-tags="square-cross" d="M170.668 917.334h682.668q53 0 90.5-37.5t37.5-90.5v-682.668q0-53-37.5-90.5t-90.5-37.5h-682.668q-53 0-90.5 37.5t-37.5 90.5v682.668q0 53 37.5 90.5t90.5 37.5zM853.332 832h-682.668q-17.668 0-30.168-12.5t-12.5-30.168v-682.668q0-17.668 12.5-30.168t30.168-12.5h682.668q17.668 0 30.168 12.5t12.5 30.168v682.668q0 17.668-12.5 30.168t-30.168 12.5zM632.668 611.668q17.668 0 30.332-12.666t12.668-30.334-12.668-30.332l-90.668-90.334 90.668-90.332q12.668-12.668 12.668-30.332t-12.668-30.168-30.332-12.5-30 12.332l-90.668 90.668-90.668-90.668q-12-12.332-30-12.332-18.332 0-30.5 12.168t-12.166 30.5q0 18 12.334 30.332l90.668 90.332-90.668 90.334q-12.334 12.332-12.334 30.332 0 17.668 12.5 30.334t30.166 12.666q18 0 30-12.666l90.668-90.668 90.668 90.668q12.668 12.666 30 12.666z" />
<glyph unicode="&#xa1;" glyph-name="square-minus" data-tags="square-minus" d="M170.668 917.334h682.668q53 0 90.5-37.5t37.5-90.5v-682.668q0-53-37.5-90.5t-90.5-37.5h-682.668q-53 0-90.5 37.5t-37.5 90.5v682.668q0 53 37.5 90.5t90.5 37.5zM853.332 832h-682.668q-17.668 0-30.168-12.5t-12.5-30.168v-682.668q0-17.668 12.5-30.168t30.168-12.5h682.668q17.668 0 30.168 12.5t12.5 30.168v682.668q0 17.668-12.5 30.168t-30.168 12.5zM341.334 490.668h341.334q17.668 0 30.168-12.5t12.5-30.168-12.5-30.168-30.168-12.5h-341.334q-17.666 0-30.166 12.5t-12.5 30.168 12.5 30.168 30.168 12.5z" />
<glyph unicode="&#xa2;" glyph-name="circle-check" data-tags="circle-check" d="M512 917.334q95.668 0 182.5-37.168t149.668-100 100-149.666 37.168-182.5-37.168-182.5-100-149.668-149.668-100-182.5-37.168-182.5 37.168-149.668 100-100 149.668-37.168 182.5 37.168 182.5 100 149.666 149.668 100 182.5 37.168zM512 832q-78 0-149.168-30.5t-122.5-81.834-81.832-122.5-30.5-149.168 30.5-149.168 81.832-122.5 122.5-81.832 149.168-30.5 149.168 30.5 122.5 81.832 81.832 122.5 30.5 149.168-30.5 149.168-81.832 122.5-122.5 81.834-149.168 30.5zM655.668 576.334q17.668 0 30.168-12.5t12.5-30.168-12.668-30.332l-181-181q-12.334-12.332-30-12.332-18 0-30.332 12.332l-90.668 90.332q-12.334 12.332-12.334 30.332 0 17.668 12.5 30.168t30.166 12.5 30.332-12.666l60.332-60.334 150.668 151q12.668 12.668 30.332 12.668z" />
<glyph unicode="&#xa5;" glyph-name="creditcard" data-tags="creditcard" d="M986.5 797.168c-25 25-55.168 37.5-90.5 37.5h-768c-35.332 0-65.5-12.5-90.5-37.5s-37.5-55.166-37.5-90.5v-517.332c0-35.332 12.5-65.5 37.5-90.5s55.168-37.5 90.5-37.5h768c35.332 0 65.5 12.5 90.5 37.5s37.5 55.168 37.5 90.5v517.334c0 35.334-12.5 65.5-37.5 90.5zM97.832 736.834c8.334 8.334 18.39 12.5 30.168 12.5h768c11.778 0 21.834-4.166 30.166-12.5s12.5-18.39 12.5-30.166v-42.666h-853.332v42.666c0 11.778 4.166 21.834 12.5 30.168zM926.166 159.166c-8.334-8.332-18.39-12.5-30.168-12.5h-768c-11.778 0-21.834 4.166-30.168 12.5s-12.5 18.39-12.5 30.168v303.998h853.332v-304c0-11.778-4.166-21.834-12.5-30.168z" />
<glyph unicode="&#xa7;" glyph-name="stop" data-tags="stop" d="M256 832h512q53 0 90.5-37.5t37.5-90.5v-512q0-53-37.5-90.5t-90.5-37.5h-512q-53 0-90.5 37.5t-37.5 90.5v512q0 53 37.5 90.5t90.5 37.5zM768 746.668h-512q-17.668 0-30.168-12.5t-12.5-30.166v-512q0-17.668 12.5-30.168t30.168-12.5h512q17.668 0 30.168 12.5t12.5 30.168v512q0 17.666-12.5 30.166t-30.168 12.5z" />
<glyph unicode="&#xa8;" glyph-name="simply-down" data-tags="simply-down" d="M780.332 587.668c8.222 8.222 18.332 12.334 30.332 12.334 12.222 0 22.39-4.056 30.5-12.168s12.168-18.276 12.168-30.5c0-12-4.11-22.11-12.332-30.334l-298.666-298.666c-8.222-8.222-18.332-12.332-30.332-12.332s-22.11 4.11-30.332 12.332l-298.666 298.668c-8.224 8.222-12.332 18.334-12.332 30.334 0 12.222 4.056 22.388 12.168 30.5s18.276 12.166 30.5 12.166c12 0 22.11-4.112 30.332-12.334l268.334-268.332 268.334 268.334z" />
<glyph unicode="&#xa9;" glyph-name="pie-graph" data-tags="pie-graph" d="M512 917.334q95.668 0 182.5-37.168t149.668-100 100-149.666 37.168-182.5-37.168-182.5-100-149.668-149.668-100-182.5-37.168-182.5 37.168-149.668 100-100 149.668-37.168 182.5 37.168 182.5 100 149.666 149.668 100 182.5 37.168zM469.334 405.334v424.334q-71-8-134.166-41.168t-108.668-83.5-72-117.332-26.5-139.668q0-78 30.5-149.168t81.832-122.5 122.5-81.832 149.166-30.5q72.668 0 139.668 26.5t117.332 72 83.5 108.668 41.168 134.168h-424.334zM554.668 829.668v-339h339q-7.332 66-36.332 125.168t-73.668 103.832-103.832 73.668-125.168 36.332z" />
<glyph unicode="&#xaa;" glyph-name="cloud-upload" data-tags="cloud-upload" d="M640 874.668q78 0 149.168-30.5t122.5-81.832 81.832-122.5 30.5-149.166q0-72.668-26.5-139.668t-72-117.332-108.668-83.5-134.168-41.168v86q71.668 10.332 130.168 51.832t92.168 105.668 33.668 138.168q0 60.668-23.668 116t-63.668 95.334-95.332 63.666-116 23.668q-55.332 0-106.5-19.832t-90-53.834-65-81.332-33.832-101h-88.668q-70.668 0-120.668-50t-50-120.668q0-38.668 15.168-71.668t39.832-54.168 54.832-33 60.832-11.832h170.668v-85.332h-170.668q-69.668 0-128.5 34.332t-93.168 93.168-34.332 128.5 34.332 128.5 93.168 93.168 128.5 34.332h22q26.332 74.334 79.332 132.168t126.832 90.832 155.832 33zM554.668 533.334q17.668 0 30.332-12.666l128-128q12.332-12.332 12.332-30 0-18.332-12.168-30.5t-30.5-12.168q-18 0-30.332 12.332l-55 55.332v-281q0-17.668-12.5-30.168t-30.168-12.5-30.168 12.5-12.5 30.168v281l-55-55.332q-12.334-12.332-30.332-12.332-17.668 0-30.168 12.5t-12.5 30.168q0 17 12.334 30l128 128q12.668 12.666 30.332 12.666z" />
<glyph unicode="&#xab;" glyph-name="square-plus" data-tags="square-plus" d="M170.668 917.334h682.668q53 0 90.5-37.5t37.5-90.5v-682.668q0-53-37.5-90.5t-90.5-37.5h-682.668q-53 0-90.5 37.5t-37.5 90.5v682.668q0 53 37.5 90.5t90.5 37.5zM853.332 832h-682.668q-17.668 0-30.168-12.5t-12.5-30.168v-682.668q0-17.668 12.5-30.168t30.168-12.5h682.668q17.668 0 30.168 12.5t12.5 30.168v682.668q0 17.668-12.5 30.168t-30.168 12.5zM512 661.334q17.668 0 30.168-12.5t12.5-30.168v-128h128q17.668 0 30.168-12.5t12.5-30.168-12.5-30.168-30.168-12.5h-128v-128q0-17.668-12.5-30.168t-30.168-12.5-30.168 12.5-12.5 30.168v128h-128q-17.668 0-30.168 12.5t-12.5 30.168 12.5 30.168 30.168 12.5h128v128q0 17.668 12.5 30.168t30.168 12.5z" />
<glyph unicode="&#xac;" glyph-name="loader" data-tags="loader" d="M693.332 309.668q17.332 0 30-12.668l120.668-120.668q12.668-12.668 12.668-30.332 0-17.332-12.668-30t-30-12.668q-17.668 0-30.332 12.668l-120.668 120.668q-12.332 12.332-12.332 30.332 0 17.668 12.5 30.168t30.168 12.5zM331 309.668q17.668 0 30.168-12.5t12.5-30.168-12.666-30.332l-120.668-120.668q-12.668-12.668-30-12.668-17.668 0-30.168 12.5t-12.5 30.168q0 18 12.332 30.332l120.668 120.668q12.666 12.668 30.332 12.668zM85.332 490.668h170.668q17.668 0 30.168-12.5t12.5-30.168-12.5-30.168-30.168-12.5h-170.668q-17.668 0-30.168 12.5t-12.5 30.168 12.5 30.168 30.168 12.5zM512 234.668q17.668 0 30.168-12.5t12.5-30.168v-170.668q0-17.668-12.5-30.168t-30.168-12.5-30.168 12.5-12.5 30.168v170.668q0 17.668 12.5 30.168t30.168 12.5zM210.332 792.668q17.332 0 30-12.666l120.668-120.668q12.666-12.666 12.666-30 0-17.666-12.5-30.166t-30.166-12.5q-18 0-30.332 12.332l-120.668 120.668q-12.332 12.332-12.332 30.332 0 17.668 12.5 30.168t30.168 12.5zM768 490.668h170.668q17.668 0 30.168-12.5t12.5-30.168-12.5-30.168-30.168-12.5h-170.668q-17.668 0-30.168 12.5t-12.5 30.168 12.5 30.168 30.168 12.5zM512 917.334q17.668 0 30.168-12.5t12.5-30.168v-170.666q0-17.668-12.5-30.168t-30.168-12.5-30.168 12.5-12.5 30.168v170.666q0 17.668 12.5 30.168t30.168 12.5zM814 792.668q17.332 0 30-12.666t12.668-30q0-17.668-12.668-30.334l-120.668-120.666q-12.332-12.334-30-12.334-18.332 0-30.5 12.166t-12.168 30.5q0 17.668 12.332 30l120.668 120.668q12.668 12.668 30.332 12.668z" />
<glyph unicode="&#xae;" glyph-name="arrange" data-tags="arrange" d="M306.666 828c12 0 22.112-4.112 30.334-12.334l192-192c8.222-8.222 12.332-18.332 12.332-30.332 0-12.224-4.056-22.39-12.168-30.5s-18.276-12.168-30.5-12.168c-12 0-22.11 4.11-30.332 12.332l-119 119.334v-558.334c0-11.778-4.166-21.832-12.5-30.168s-18.388-12.5-30.168-12.5c-11.776 0-21.832 4.168-30.168 12.5s-12.5 18.39-12.5 30.168v558.334l-119-119.334c-8.224-8.222-18.332-12.332-30.332-12.332-12.222 0-22.388 4.056-30.5 12.168s-12.168 18.276-12.168 30.5c0 12 4.112 22.11 12.332 30.332l192 192c8.224 8.224 18.332 12.334 30.332 12.334zM717.332 68c-12 0-22.112 4.112-30.332 12.332l-192 192c-8.224 8.222-12.334 18.332-12.334 30.332 0 12.222 4.056 22.39 12.166 30.5s18.278 12.168 30.5 12.168c12 0 22.11-4.11 30.332-12.332l119-119.332v558.334c0 11.776 4.168 21.832 12.5 30.166s18.388 12.5 30.168 12.5 21.832-4.166 30.168-12.5 12.5-18.39 12.5-30.166v-558.334l119 119.332c8.222 8.222 18.332 12.332 30.332 12.332 12.222 0 22.388-4.056 30.5-12.168s12.168-18.278 12.168-30.5c0-12-4.112-22.11-12.332-30.332l-192-192c-8.222-8.222-18.332-12.332-30.332-12.332z" />
<glyph unicode="&#xb0;" glyph-name="pinterest" data-tags="pinterest" d="M548.608 876.512c-245.408 0-369.152-175.936-369.152-322.656 0-88.832 33.632-167.84 105.76-197.28 11.84-4.864 22.432-0.192 25.856 12.928 2.4 9.024 8.032 31.904 10.56 41.44 3.456 12.96 2.112 17.472-7.456 28.8-20.8 24.512-34.112 56.256-34.112 101.28 0 130.528 97.664 247.36 254.304 247.36 138.688 0 214.912-84.736 214.912-197.92 0-148.928-65.92-274.624-163.744-274.624-54.048 0-94.464 44.672-81.536 99.488 15.52 65.44 45.6 136.032 45.6 183.296 0 42.272-22.688 77.536-69.664 77.536-55.232 0-99.616-57.152-99.616-133.664 0-48.736 16.48-81.728 16.48-81.728s-56.512-239.52-66.432-281.44c-19.712-83.552-2.976-185.92-1.536-196.256 0.832-6.144 8.704-7.616 12.288-3.008 5.088 6.656 70.88 87.872 93.248 169.056 6.336 22.944 36.32 141.952 36.32 141.952 17.952-34.24 70.4-64.352 126.176-64.352 166.016 0 278.656 151.328 278.656 353.92 0.032 153.216-129.728 295.904-326.944 295.904z" />
<glyph unicode="&#xb1;" glyph-name="circle-plus" data-tags="circle-plus" d="M512 917.334q95.668 0 182.5-37.168t149.668-100 100-149.666 37.168-182.5-37.168-182.5-100-149.668-149.668-100-182.5-37.168-182.5 37.168-149.668 100-100 149.668-37.168 182.5 37.168 182.5 100 149.666 149.668 100 182.5 37.168zM512 832q-78 0-149.168-30.5t-122.5-81.834-81.832-122.5-30.5-149.168 30.5-149.168 81.832-122.5 122.5-81.832 149.168-30.5 149.168 30.5 122.5 81.832 81.832 122.5 30.5 149.168-30.5 149.168-81.832 122.5-122.5 81.834-149.168 30.5zM512 661.334q17.668 0 30.168-12.5t12.5-30.168v-128h128q17.668 0 30.168-12.5t12.5-30.168-12.5-30.168-30.168-12.5h-128v-128q0-17.668-12.5-30.168t-30.168-12.5-30.168 12.5-12.5 30.168v128h-128q-17.668 0-30.168 12.5t-12.5 30.168 12.5 30.168 30.168 12.5h128v128q0 17.668 12.5 30.168t30.168 12.5z" />
<glyph unicode="&#xb4;" glyph-name="umbrella" data-tags="umbrella" d="M512 917.334q75 0 145.832-21t130-59.668 106.668-91.168 79-117.832 43.5-137q7-41.334 7-85.334h-469.334v-256q0-35.332 25-60.332t60.332-25 60.332 25 25 60.332q0 17.668 12.5 30.168t30.168 12.5 30.168-12.5 12.5-30.168q0-70.668-50-120.668t-120.668-50-120.668 50-50 120.668v256h-469.334q0 44 7 85.334 12 71.666 43.5 137t79 117.832 106.668 91.168 130 59.666 145.832 21zM512 832q-101.332 0-190.332-44.668t-148.5-122.332-79.168-174.334h836q-19.668 96.668-79.168 174.334t-148.5 122.332-190.332 44.668z" />
<glyph unicode="&#xb5;" glyph-name="homme" data-tags="homme" d="M915.31 830.776c-3.826 9.22-11.308 16.706-20.554 20.544-4.758 1.936-9.638 2.916-14.504 2.916h-188.476c-20.918 0-37.936-17.018-37.936-37.936s17.018-37.934 37.934-37.934h96.842l-131.808-131.854c-29.534 23.65-62.446 42.008-97.86 54.584-36.38 12.922-74.654 19.472-113.76 19.472-90.638 0-175.874-35.29-240.006-99.37-132.314-132.314-132.314-347.646 0-480.008 64.114-64.116 149.348-99.424 240.006-99.424 90.606 0 175.842 35.308 240.004 99.424 64.114 64.11 99.422 149.346 99.422 240.004 0 39.116-6.56 77.404-19.496 113.796-12.586 35.406-30.952 68.306-54.61 97.822l131.808 131.806v-96.89c0-20.918 17.018-37.936 37.936-37.936s37.934 17.016 37.934 37.936v188.524c0 4.952-0.964 9.832-2.876 14.526zM445.19 117.634c-70.388 0-136.57 27.418-186.354 77.202-49.704 49.678-77.076 115.854-77.076 186.33s27.372 136.65 77.076 186.33c49.784 49.784 115.968 77.202 186.354 77.202 70.438 0 136.616-27.418 186.356-77.204 49.784-49.738 77.202-115.916 77.202-186.35-0.048-70.406-27.47-136.572-77.202-186.308-49.784-49.784-115.966-77.202-186.354-77.202z" />
<glyph unicode="&#xb6;" glyph-name="filecheck" data-tags="filecheck" d="M716.668 609.668c12.222 0 22.39-4.056 30.5-12.166s12.168-18.278 12.168-30.5c0-12-4.11-22.112-12.332-30.334l-238-238c-8.224-8.222-18.332-12.332-30.332-12.332s-22.11 4.11-30.332 12.332l-125.332 125.332c-8.224 8.222-12.334 18.332-12.334 30.332 0 12.222 4.056 22.388 12.166 30.5s18.276 12.166 30.5 12.166c12 0 22.11-4.112 30.332-12.334l95-95.334 207.668 208c8.222 8.224 18.332 12.334 30.332 12.334zM213.332 960h597.332c35.332 0 65.5-12.5 90.5-37.5s37.5-55.166 37.5-90.5v-768c0-35.332-12.5-65.5-37.5-90.5s-55.168-37.5-90.5-37.5h-597.332c-35.332 0-65.5 12.5-90.5 37.5s-37.5 55.168-37.5 90.5v768c0 35.332 12.5 65.5 37.5 90.5s55.168 37.5 90.5 37.5zM810.668 874.668h-597.332c-11.776 0-21.832-4.168-30.168-12.5s-12.5-18.39-12.5-30.166v-768c0-11.778 4.168-21.832 12.5-30.168s18.39-12.5 30.168-12.5h597.332c11.778 0 21.832 4.168 30.168 12.5s12.5 18.39 12.5 30.168v768c0 11.776-4.168 21.832-12.5 30.166s-18.39 12.5-30.168 12.5z" />
<glyph unicode="&#xb7;" glyph-name="Filter" data-tags="Filter" d="M128 661.334h97.604c6.126-17.624 16.302-33.572 30.564-47.832 25-25 55.168-37.5 90.5-37.5s65.5 12.5 90.5 37.5c14.262 14.26 24.44 30.208 30.564 47.832h428.268c11.778 0 21.832 4.168 30.168 12.5s12.5 18.39 12.5 30.168-4.168 21.832-12.5 30.166-18.39 12.5-30.168 12.5h-428.27c-6.126 17.624-16.302 33.572-30.564 47.834-25 25-55.166 37.5-90.5 37.5s-65.5-12.5-90.5-37.5c-14.26-14.262-24.438-30.21-30.564-47.834h-97.602c-11.778 0-21.832-4.166-30.168-12.5s-12.5-18.39-12.5-30.166 4.168-21.834 12.5-30.168 18.388-12.5 30.168-12.5zM316.5 734.168c8.334 8.334 18.388 12.5 30.168 12.5s21.832-4.166 30.168-12.5 12.5-18.39 12.5-30.166c0-11.778-4.166-21.834-12.5-30.168s-18.388-12.5-30.168-12.5-21.832 4.168-30.168 12.5-12.5 18.388-12.5 30.168c0 11.776 4.166 21.832 12.5 30.166zM896 490.668h-95.336c-6.126 17.624-16.304 33.572-30.564 47.834-25 25-55.168 37.5-90.5 37.5s-65.5-12.5-90.5-37.5c-14.26-14.262-24.438-30.21-30.564-47.834h-430.536c-11.778 0-21.832-4.166-30.168-12.5s-12.5-18.39-12.5-30.168c0-11.778 4.168-21.832 12.5-30.168s18.388-12.5 30.168-12.5h430.536c6.126-17.624 16.304-33.572 30.564-47.832 25-25 55.168-37.5 90.5-37.5s65.5 12.5 90.5 37.5c14.26 14.26 24.438 30.208 30.564 47.832h95.336c11.778 0 21.832 4.168 30.168 12.5s12.5 18.388 12.5 30.168c0 11.778-4.168 21.834-12.5 30.168s-18.39 12.5-30.168 12.5zM709.764 417.834c-8.332-8.332-18.388-12.5-30.168-12.5s-21.832 4.168-30.168 12.5-12.5 18.388-12.5 30.168c0 11.778 4.168 21.834 12.5 30.168s18.388 12.5 30.168 12.5 21.832-4.166 30.168-12.5 12.5-18.39 12.5-30.168c0-11.778-4.168-21.832-12.5-30.168zM896 234.668h-428.27c-6.126 17.624-16.302 33.572-30.564 47.832-25 25-55.166 37.5-90.5 37.5s-65.5-12.5-90.5-37.5c-14.26-14.26-24.438-30.208-30.564-47.832h-97.602c-11.778 0-21.832-4.168-30.168-12.5s-12.5-18.388-12.5-30.168 4.168-21.832 12.5-30.168 18.388-12.5 30.168-12.5h97.602c6.126-17.624 16.302-33.572 30.564-47.832 25-25 55.166-37.5 90.5-37.5s65.5 12.5 90.5 37.5c14.262 14.26 24.44 30.208 30.564 47.832h428.27c11.778 0 21.832 4.168 30.168 12.5s12.5 18.388 12.5 30.168-4.168 21.832-12.5 30.168-18.39 12.5-30.168 12.5zM376.834 161.834c-8.334-8.332-18.388-12.5-30.166-12.5s-21.832 4.168-30.168 12.5-12.5 18.388-12.5 30.168 4.166 21.832 12.5 30.168 18.388 12.5 30.168 12.5 21.832-4.168 30.168-12.5 12.5-18.388 12.5-30.168-4.166-21.832-12.5-30.168z" />
<glyph unicode="&#xbb;" glyph-name="twitter" data-tags="twitter" d="M954.336 687.904c-32.704-14.528-67.904-24.352-104.864-28.736 37.728 22.592 66.624 58.336 80.256 100.992-35.264-20.928-74.336-36.128-115.936-44.32-33.28 35.488-80.736 57.664-133.248 57.664-100.8 0-182.528-81.728-182.528-182.56 0-14.272 1.6-28.224 4.736-41.6-151.712 7.616-286.24 80.288-376.288 190.752-15.712-26.944-24.704-58.304-24.704-91.808 0-63.328 32.224-119.2 81.216-151.936-29.92 0.96-58.080 9.184-82.688 22.848-0.032-0.768-0.032-1.536-0.032-2.304 0-88.448 62.944-162.208 146.464-179.008-15.328-4.16-31.456-6.4-48.096-6.4-11.776 0-23.2 1.152-34.368 3.296 23.232-72.512 90.656-125.312 170.528-126.784-62.464-48.96-141.184-78.144-226.72-78.144-14.72 0-29.248 0.864-43.552 2.56 80.8-51.808 176.768-82.016 279.84-82.016 335.808 0 519.392 278.144 519.392 519.392 0 7.904-0.16 15.808-0.512 23.648 35.648 25.696 66.624 57.856 91.072 94.464z" />
<glyph unicode="&#xc1;" glyph-name="dailymotion" data-tags="dailymotion" d="M848.896 58.112l-70.784 339.936-28.8 10.848-1.248-0.48-4.096 1.568-28.192-10.752-7.648 49.152-59.904 23.232-20.16 194.24 31.040 31.104-126.048 81.312-8.576 140.928-11.68-127.776-6.24 3.872-98.816-126.976 3.264-2.4-0.928-1.184 20.768-15.232-12.416-98.88-19.264 3.072-14.016-20.896-16.128-97.856-63.904 13.056-1.184-1.12-3.584 0.736-23.328-21.696-10.88-49.536-13.216-10.848-77.792-277.984 41.248-40.288 103.456 10.016-3.84-20.832 50.56-21.696 14.016 3.872-0.768-9.28 81.696-32.512 165.728 26.304v8.512l21.792-3.104 88.704 16.256-0.768 17.824 26.464-6.976 36.576 6.976-1.12 6.272z" />
<glyph unicode="&#xc2;" glyph-name="archive" data-tags="archive" d="M256 832h512l256-256v-384q0-53-37.5-90.5t-90.5-37.5h-768q-53 0-90.5 37.5t-37.5 90.5v384zM938.668 192v298.668h-187.332q-28.332-74-94.5-122.334t-144.832-48.332q-52.332 0-101.668 22.332t-86 61.168-55 87.168h-184v-298.668q0-17.332 12.332-30t30.332-12.668h768q17.668 0 30.168 12.5t12.5 30.168zM903.332 576l-169 170.666h-443l-170.668-170.666h220.668q0-42.334 22.668-81.668t62.5-64.168 85.5-24.832 85.5 24.832 62.5 64.168 22.668 81.668h220.668z" />
<glyph unicode="&#xc5;" glyph-name="zoom-out" data-tags="zoom-out" d="M426.666 917.334q78 0 149.166-30.5t122.5-81.832 81.832-122.5 30.5-149.168q0-67-21.832-128.334t-62.168-111.332l242.332-242q12.332-12.332 12.332-30.332 0-18.332-12.168-30.5t-30.5-12.168q-18 0-30.332 12.332l-242 242.332q-50-40.332-111.332-62.168t-128.332-21.832q-78 0-149.168 30.5t-122.5 81.832-81.832 122.5-30.5 149.168 30.5 149.168 81.832 122.5 122.5 81.832 149.168 30.5zM426.666 832q-60.666 0-116-23.668t-95.332-63.666-63.668-95.334-23.668-116 23.668-116 63.668-95.332 95.332-63.668 116-23.668 116 23.668 95.332 63.668 63.668 95.332 23.668 116-23.668 116-63.668 95.334-95.332 63.666-116 23.668zM298.666 576h256q17.668 0 30.168-12.5t12.5-30.168-12.5-30.168-30.168-12.5h-256q-17.668 0-30.168 12.5t-12.5 30.168 12.5 30.168 30.168 12.5z" />
<glyph unicode="&#xc6;" glyph-name="alt" data-tags="alt" d="M128 789.334h213.332q24.332 0 37-21.332l329-576h188.668q17.668 0 30.168-12.5t12.5-30.168-12.5-30.168-30.168-12.5h-213.332q-24.332 0-37 21.332l-329 576h-188.668q-17.668 0-30.168 12.5t-12.5 30.168 12.5 30.168 30.168 12.5zM597.332 789.334h213.332q17.668 0 30.168-12.5t12.5-30.166-12.5-30.168-30.168-12.5h-213.332q-17.668 0-30.168 12.5t-12.5 30.166 12.5 30.168 30.168 12.5z" />
<glyph unicode="&#xc7;" glyph-name="square-check" data-tags="square-check" d="M170.668 917.334h682.668q53 0 90.5-37.5t37.5-90.5v-682.668q0-53-37.5-90.5t-90.5-37.5h-682.668q-53 0-90.5 37.5t-37.5 90.5v682.668q0 53 37.5 90.5t90.5 37.5zM853.332 832h-682.668q-17.668 0-30.168-12.5t-12.5-30.168v-682.668q0-17.668 12.5-30.168t30.168-12.5h682.668q17.668 0 30.168 12.5t12.5 30.168v682.668q0 17.668-12.5 30.168t-30.168 12.5zM682.668 596.334q17.332 0 30-12.5t12.668-30.168-12.668-30.332l-211-211q-12.334-12.332-30-12.332-18 0-30.332 12.332l-120.668 120.668q-12.334 12.332-12.334 30.332 0 17.668 12.5 30.168t30.166 12.5q17.332 0 30-12.666l90.332-90.668 181 181q12.668 12.666 30.332 12.666z" />
<glyph unicode="&#xc8;" glyph-name="server" data-tags="server" d="M512 917.334q87.332 0 169-10.5t149.832-30.668 109.332-53.668 41.168-75.832v-597.332q0-42.332-41.168-75.832t-109.332-53.668-149.832-30.668-169-10.5-169 10.5-149.832 30.668-109.332 53.668-41.168 75.832v597.332q0 42.334 41.168 75.834t109.332 53.666 149.832 30.668 169 10.5zM896 150v194.332q-65.332-33-168.332-50t-215.668-17-215.668 17-168.332 50v-195q2-7.332 17.832-17.668t48.5-22.332 76-22 107-16.668 134.668-6.668 134.668 6.668 107 16.832 76 22.168 48.5 22.332 17.832 18zM896 448.668v194.334q-65.332-33-168.332-50t-215.668-17-215.668 17-168.332 50v-195q2-7.332 17.832-17.668t48.5-22.332 76-22 107-16.668 134.668-6.668 134.668 6.668 106.832 16.668 75.832 22 48.668 22.5 18 18.168zM512 832q-70.332 0-133.668-6.668t-106.332-16.5-75.832-21.666-49.168-22.334-19-18.166q2.668-7.668 19-18.168t49.168-22.332 75.832-21.666 106.332-16.5 133.668-6.668 133.668 6.668 106.332 16.5 75.832 21.666 49.168 22.334 19 18.166q-2.668 7.668-19 18.168t-49.168 22.332-75.832 21.668-106.332 16.5-133.668 6.668z" />
<glyph unicode="&#xcc;" glyph-name="help" data-tags="help" d="M512 917.334q92 0 178.332-35t153.668-102.332 102.332-153.668 35-178.332-35-178.332-102.332-153.668-153.668-102.332-178.332-35-178.332 35-153.668 102.332-102.332 153.668-35 178.332 35 178.332 102.332 153.668 153.668 102.332 178.332 35zM334 565.668l-122 122q-41.332-51.666-62.668-113.334t-21.332-126.332 21.332-126.332 62.668-113.332l122 122q-35.332 53.332-35.332 117.668t35.332 117.668zM751.668 148l-122 122q-53.332-35.332-117.668-35.332t-117.668 35.332l-122-122q51.668-41.332 113.332-62.668t126.332-21.332 126.332 21.332 113.332 62.668zM512 576q-53 0-90.5-37.5t-37.5-90.5 37.5-90.5 90.5-37.5 90.5 37.5 37.5 90.5-37.5 90.5-90.5 37.5zM512 832q-64.668 0-126.332-21.334t-113.332-62.666l122-122q53.332 35.332 117.668 35.332t117.668-35.332l122 122q-51.668 41.332-113.332 62.666t-126.332 21.334zM812 687.668l-122-122q35.332-53.334 35.332-117.668t-35.332-117.668l122-122q41.332 51.668 62.668 113.332t21.332 126.332-21.332 126.334-62.668 113.332z" />
<glyph unicode="&#xcd;" glyph-name="goin" data-tags="goin" d="M981.332 448c0-11.778-4.168-21.832-12.5-30.168s-18.388-12.5-30.168-12.5h-494.334l140.666-140.332c8.222-8.222 12.332-18.332 12.332-30.332 0-12.222-4.056-22.39-12.168-30.5s-18.278-12.168-30.5-12.168c-12 0-22.112 4.11-30.332 12.332l-213.332 213.332c-8.224 8.222-12.334 18.332-12.334 30.332s4.11 22.112 12.334 30.334l213.332 213.332c8.668 8.224 18.778 12.334 30.332 12.334 11.778 0 21.832-4.166 30.168-12.5s12.5-18.388 12.5-30.166c0-12-4.11-22.112-12.332-30.334l-140.668-140.332h494.334c11.778 0 21.832-4.166 30.168-12.5s12.5-18.392 12.5-30.168zM163.876-21.438c-25.478 0-56.734 8.158-83.882 35.182-24.508 23.948-37.456 54.644-37.456 88.788v689.010c0 34.436 12.876 65.516 37.232 89.878 42.704 42.704 105.484 33.36 112.5 32.154 1.618-0.278 3.222-0.648 4.8-1.11l213.188-62.206c22.976-6.704 36.164-30.764 29.46-53.736s-30.762-36.164-53.738-29.46l-209.988 61.276c-9.118 0.886-26.74-0.004-34.932-8.196-8.196-8.198-11.854-17.020-11.854-28.598v-689.012c0-11.034 3.42-19.072 11.436-26.876 0.14-0.136 0.278-0.274 0.416-0.412 12.228-12.228 24.74-10.446 29.192-9.268 1.182 0.514 0.872 0.304 2.544 0.794l213.188 62.208c22.976 6.702 47.032-6.486 53.738-29.462 6.704-22.972-6.486-47.032-29.46-53.736l-211.99-61.86c-8.802-3.028-20.776-5.36-34.394-5.36z" />
<glyph unicode="&#xcf;" glyph-name="goout" data-tags="goout" d="M298.666 448c0 11.778 4.166 21.834 12.5 30.168s18.388 12.5 30.166 12.5h494.332l-140.668 140.334c-8.222 8.222-12.332 18.332-12.332 30.332 0 12.224 4.056 22.39 12.168 30.5s18.278 12.168 30.5 12.168c12 0 22.112-4.11 30.332-12.332l213.332-213.334c8.222-8.224 12.332-18.334 12.332-30.334s-4.11-22.11-12.332-30.332l-213.332-213.332c-8.668-8.222-18.778-12.332-30.332-12.332-11.778 0-21.832 4.168-30.168 12.5s-12.5 18.388-12.5 30.168c0 12 4.11 22.11 12.332 30.332l140.668 140.332h-494.334c-11.778 0-21.834 4.168-30.166 12.5s-12.5 18.39-12.5 30.168zM163.876-21.438c-25.478 0-56.734 8.158-83.882 35.182-24.508 23.948-37.456 54.644-37.456 88.788v689.010c0 34.436 12.876 65.516 37.232 89.878 42.704 42.706 105.484 33.36 112.5 32.154 1.618-0.278 3.222-0.648 4.8-1.11l213.188-62.206c22.976-6.704 36.164-30.764 29.46-53.736s-30.762-36.164-53.738-29.46l-209.99 61.276c-9.118 0.888-26.742-0.004-34.932-8.196-8.198-8.198-11.854-17.020-11.854-28.6v-689.012c0-11.034 3.42-19.072 11.436-26.876 0.14-0.136 0.278-0.274 0.416-0.412 12.228-12.228 24.74-10.446 29.192-9.268 1.182 0.514 0.872 0.304 2.544 0.794l213.188 62.208c22.976 6.702 47.032-6.486 53.738-29.462 6.704-22.972-6.486-47.032-29.46-53.736l-211.99-61.86c-8.802-3.028-20.776-5.36-34.394-5.36z" />
<glyph unicode="&#xd2;" glyph-name="volume" data-tags="volume" d="M213.332 618.668l213.332 213.332v-768l-213.332 213.332h-85.332q-53 0-90.5 37.5t-37.5 90.5v83.668q0 53 37.5 91.332t90.5 38.334h85.332zM341.334 270v357.668l-92.668-94.334h-120.668q-17.332 0-30-13.166t-12.668-31.166v-83.668q0-17.668 12.5-30.168t30.168-12.5h120.668zM620 590.334q12.332 0 23.168-7t16.168-19q23.332-56.334 23.332-116.334 0-61-23.332-115.668-5-12-15.832-19.168t-23.5-7.168q-15.668 0-29.168 11.832t-13.5 30.832q0 7.668 3.332 16.668 16.668 39.332 16.668 82.668 0 43-16.668 83-3.332 7.666-3.332 16.668 0 19 12.832 30.832t29.832 11.834zM750.332 709.334q24 0 36.668-21 33-55 49-113.666 17.332-62.668 17.332-126.668 0-63.668-17.332-127-16.332-59.332-49-113.668-12.332-20.668-36.668-20.668-16.668 0-29.668 12t-13 30.668q0 11.668 6.332 22 26 43.332 39.668 92.668 14.332 50 14.332 104 0 53.668-14.332 103.668-13.668 49.332-39.668 93-6.332 9.666-6.332 21.666 0 18 13.168 30.5t29.5 12.5zM878 826.334q23 0 35.332-18.666 54.332-79.668 82.5-171.334t28.168-188.332-28.168-188.332-82.5-171.332q-12-18.668-35.332-18.668-17.332 0-29.832 12t-12.5 30.668q0 13.332 7.332 24 95.668 140.332 95.668 311.668 0 84-24.332 163.334t-71.332 148.332q-7.332 10.668-7.332 24 0 18.668 12.5 30.668t29.832 12z" />
<glyph unicode="&#xd3;" glyph-name="location" data-tags="location" d="M0 490.668l1024 469.332-469.334-1024-128 426.666zM571.332 177.334l279.332 609.334-609.332-279.334 254-76z" />
<glyph unicode="&#xd4;" glyph-name="arrow-down" data-tags="arrow-down" d="M512 874.668q17.668 0 30.168-12.5t12.5-30.166v-665l225.668 226q12.332 12.332 30.332 12.332 18.332 0 30.5-12.168t12.168-30.5q0-18-12.332-30.332l-298.668-298.668q-12.332-12.332-30.332-12.332t-30.332 12.332l-298.666 298.666q-12.332 12.332-12.332 30.332 0 18.332 12.168 30.5t30.5 12.168q18 0 30.332-12.332l225.668-226v665q0 17.668 12.5 30.168t30.168 12.5z" />
<glyph unicode="&#xd8;" glyph-name="facebook" data-tags="facebook" d="M730.24 567.36h-138.080v90.56c0 34.016 22.528 41.952 38.432 41.952 15.84 0 97.44 0 97.44 0v149.504l-134.208 0.512c-148.992 0-182.88-111.52-182.88-182.88v-99.68h-86.144v-154.080h86.144c0-197.728 0-435.968 0-435.968h181.216c0 0 0 240.576 0 435.968h122.272l15.808 154.080z" />
<glyph unicode="&#xd9;" glyph-name="monitor" data-tags="monitor" d="M170.668 874.668h682.668q53 0 90.5-37.5t37.5-90.5v-426.668q0-53-37.5-90.5t-90.5-37.5h-298.666v-85.332h128q17.668 0 30.168-12.5t12.5-30.168-12.5-30.168-30.168-12.5h-341.334q-17.666 0-30.166 12.5t-12.5 30.168 12.5 30.168 30.168 12.5h128v85.332h-298.666q-53 0-90.5 37.5t-37.5 90.5v426.668q0 53 37.5 90.5t90.5 37.5zM853.332 789.334h-682.668q-17.668 0-30.168-12.5t-12.5-30.166v-426.668q0-17.668 12.5-30.168t30.168-12.5h682.668q17.668 0 30.168 12.5t12.5 30.168v426.668q0 17.666-12.5 30.166t-30.168 12.5z" />
<glyph unicode="&#xdf;" glyph-name="bag" data-tags="bag" d="M512 960c28.888 0 56.5-5.666 82.832-17s49-26.5 68-45.5 34.168-41.666 45.5-68 17-53.944 17-82.834v-42.666h230.668l-66.668-640c0-35.332-12.5-65.5-37.5-90.5s-55.168-37.5-90.5-37.5h-498.666c-35.332 0-65.5 12.5-90.5 37.5s-37.5 55.168-37.5 90.5l-66.668 640h230.668v42.666c0 28.89 5.666 56.5 17 82.834s26.5 49 45.5 68 41.666 34.168 68 45.5 53.944 17 82.834 17zM796 64l65.332 554.668h-698.668l65.332-554.668c0-11.778 4.168-21.832 12.5-30.168s18.388-12.5 30.168-12.5h482.666c11.778 0 21.832 4.168 30.168 12.5s12.5 18.39 12.5 30.168zM512 874.668c-35.332 0-65.5-12.5-90.5-37.5s-37.5-55.166-37.5-90.5v-42.666h256v42.666c0 35.334-12.5 65.5-37.5 90.5s-55.168 37.5-90.5 37.5z" />
<glyph unicode="&#xe0;" glyph-name="repeat" data-tags="repeat" d="M42.668 405.334h256q17.668 0 30.168-12.5t12.5-30.168-12.5-30.168-30.168-12.5h-144l116-113.332q49.332-49.668 113-75 61-25 128.332-25t128.332 25q33.332 13.668 62.5 33.5t49.668 40.668 37.332 44.668 27 43.832 17.168 40q6 16.668 22 24.168t32.332 1.832q16.668-6 24.168-21.832t1.832-32.168q-14-42.668-40.668-84.668t-60-75.332q-61.332-61.332-141-93.668-77.332-31.332-160.668-31.332-83 0-160.668 31.332-79.668 32.332-141 93.668l-125 122.332v-162q0-17.668-12.5-30.168t-30.168-12.5-30.168 12.5-12.5 30.168v256q0 17.668 12.5 30.168t30.168 12.5zM512 874.668q83 0 160.668-31.332 79.668-32.332 141-93.668l0.668-0.666 124.332-121.668v162q0 17.668 12.5 30.168t30.168 12.5 30.168-12.5 12.5-30.168v-256q0-17.668-12.5-30.168t-30.168-12.5h-256q-17.668 0-30.168 12.5t-12.5 30.168 12.5 30.168 30.168 12.5h144l-116 113.332q-48.668 48.668-110.832 74.334t-130.5 25.666q-67.332 0-128.332-25-63.668-25.332-113-75-20-17.666-43.832-53.832t-36.832-73.834q-6-16.666-22-24.166t-32.332-1.834q-16.668 6-24.168 21.834t-1.832 32.166q14 42.668 40.668 84.668t60 75.332q61.332 61.334 141 93.668 77.668 31.332 160.668 31.332z" />
<glyph unicode="&#xe5;" glyph-name="cloud" data-tags="cloud" d="M640 832q78 0 149.168-30.5t122.5-81.834 81.832-122.5 30.5-149.168-30.5-149.168-81.832-122.5-122.5-81.832-149.168-30.5h-384q-69.668 0-128.5 34.332t-93.168 93.168-34.332 128.5 34.332 128.5 93.168 93.168 128.5 34.334h22q26.332 74.332 79.332 132.166t126.832 90.834 155.832 33zM640 746.668q-55.332 0-106.5-19.832t-90-53.832-65-81.334-33.832-101h-88.668q-70.668 0-120.668-50t-50-120.668 50-120.668 120.668-50h384q60.668 0 116 23.668t95.332 63.668 63.668 95.332 23.668 116-23.668 116-63.668 95.332-95.332 63.668-116 23.668z" />
<glyph unicode="&#xe6;" glyph-name="anchor" data-tags="anchor" d="M512 917.334q70.668 0 120.668-50t50-120.668q0-59-36-104.834t-92-60.166v-515.334q71 8 134.168 41.168t108.668 83.5 72 117.332 26.5 139.668q0 17.668 12.5 30.168t30.168 12.5 30.168-12.5 12.5-30.168q0-95.668-37.168-182.5t-100-149.668-149.668-100-182.5-37.168-182.5 37.168-149.668 100-100 149.668-37.168 182.5q0 17.668 12.5 30.168t30.168 12.5 30.168-12.5 12.5-30.168q0-72.668 26.5-139.668t72-117.332 108.668-83.5 134.168-41.168v515.334q-56 14.332-92 60.166t-36 104.834q0 70.666 50 120.666t120.668 50zM512 832q-35.332 0-60.332-25t-25-60.334 25-60.332 60.332-25 60.332 25 25 60.332-25 60.334-60.332 25z" />
<glyph unicode="&#xe7;" glyph-name="shuffle" data-tags="shuffle" d="M768 960q17.668 0 30.332-12.666l170.668-170.668q12.332-12.334 12.332-30 0-18-12.332-30.334l-170.668-170.666q-12.332-12.334-30.332-12.334-17.668 0-30.168 12.5t-12.5 30.168q0 17 12.332 30l98 98h-67.668q-60 0-112.668-26.168t-88.332-71.5q-55-70-55-158.332 0-89-42.668-165.332-22.668-41-55-73.668-47.332-48.332-110.332-75.332t-133.332-27h-85.332q-17.668 0-30.168 12.5t-12.5 30.168 12.5 30.168 30.168 12.5h85.332q60.332 0 112.832 26t88.168 71.332q55 70 55 158.668 0 89 42.668 165.334 23 41.332 55 73.332 47.332 48.334 110.332 75.5t133.332 27.168h67.668l-98 97.668q-12.332 13-12.332 30.332 0 17.668 12.5 30.168t30.168 12.5zM768 362.668q17.668 0 30.332-12.668l170.668-170.668q12.332-12.332 12.332-30.332 0-17.668-12.332-30l-170.668-170.668q-12.332-12.332-30.332-12.332-17.668 0-30.168 12.332t-12.5 30q0 17.332 12.332 30.332l98 98h-67.668q-70.332 0-133.332 27t-110.332 75.332q25.668 37.668 42.668 80.332 35.668-45.332 88.168-71.332t112.832-26h67.668l-98 97.668q-12.332 13-12.332 30.332 0 17.668 12.5 30.168t30.168 12.5zM85.332 789.334h85.332q70.332 0 133.334-27.166t110.332-75.5q-26-38.334-42.668-80.334-35.668 45.334-88.332 71.5t-112.668 26.168h-85.332q-17.668 0-30.168 12.5t-12.5 30.166 12.5 30.168 30.168 12.5z" />
<glyph unicode="&#xe8;" glyph-name="fast-forward" data-tags="fast-forward" d="M469.334 789.334q17.666 0 30-12.332l298.666-298.668q12.668-12.668 12.668-30.334t-12.668-30.332l-298.666-298.668q-12.334-12.332-30-12.332t-30.166 12.5-12.5 30.168q0 18 12.334 30.332l268.334 268.334-268.334 268.334q-12.334 12.332-12.334 30.332 0 18.334 12.166 30.5t30.5 12.168zM213.332 789.334q17.668 0 30-12.332l298.668-298.668q12.668-12.668 12.668-30.334t-12.668-30.332l-298.666-298.668q-12.332-12.332-30-12.332t-30.168 12.5-12.5 30.168q0 18 12.332 30.332l268.334 268.334-268.334 268.334q-12.332 12.332-12.332 30.332 0 18.334 12.168 30.5t30.5 12.168z" />
<glyph unicode="&#xe9;" glyph-name="skip-back" data-tags="skip-back" d="M725.332 789.334q17.668 0 30.168-12.5t12.5-30.166q0-18-12.332-30.334l-268.666-268.332 268.666-268.666q12.332-12.332 12.332-30.332 0-17.668-12.5-30t-30.168-12.332q-18 0-30.332 12.332l-298.666 298.668q-12.334 13-12.334 30.332 0 17 12.334 30l298.666 298.666q12.668 12.668 30.332 12.668zM256 789.334q17.668 0 30.168-12.5t12.5-30.166v-597.332q0-17.668-12.5-30.168t-30.168-12.5-30.168 12.5-12.5 30.168v597.332q0 17.668 12.5 30.168t30.168 12.5z" />
<glyph unicode="&#xeb;" glyph-name="file-subtract" data-tags="file-subtract" d="M213.332 960h426.668l298.666-298.666v-597.334q0-53-37.5-90.5t-90.5-37.5h-597.332q-53 0-90.5 37.5t-37.5 90.5v768q0 53 37.5 90.5t90.5 37.5zM384 362.668h256q17.668 0 30.168-12.5t12.5-30.168-12.5-30.168-30.168-12.5h-256q-17.668 0-30.168 12.5t-12.5 30.168 12.5 30.168 30.168 12.5zM554.668 576v298.666h-341.334q-18 0-30.332-12.332t-12.332-30.332v-768q0-18 12.332-30.332t30.332-12.332h597.332q18 0 30.332 12.332t12.332 30.332v512h-298.666zM818 661.334l-178 178v-178h178z" />
</font>
</defs>
</svg>
